<svg xmlns="http://www.w3.org/2000/svg" xmlns:xlink="http://www.w3.org/1999/xlink" width="500" zoomAndPan="magnify" viewBox="0 0 375 374.999991" height="500" preserveAspectRatio="xMidYMid meet" version="1.0"><defs><clipPath id="id1"><path d="M 172 206 L 181 206 L 181 240 L 172 240 Z M 172 206 " clip-rule="nonzero"/></clipPath><clipPath id="id2"><path d="M 159.648438 159.851562 L 280.941406 168.914062 L 269.160156 326.601562 L 147.863281 317.539062 Z M 159.648438 159.851562 " clip-rule="nonzero"/></clipPath><clipPath id="id3"><path d="M 159.648438 159.851562 L 280.941406 168.914062 L 269.160156 326.601562 L 147.863281 317.539062 Z M 159.648438 159.851562 " clip-rule="nonzero"/></clipPath><clipPath id="id4"><path d="M 159.648438 159.851562 L 280.941406 168.914062 L 269.160156 326.601562 L 147.863281 317.539062 Z M 159.648438 159.851562 " clip-rule="nonzero"/></clipPath><clipPath id="id5"><path d="M 174 214 L 180 214 L 180 237 L 174 237 Z M 174 214 " clip-rule="nonzero"/></clipPath><clipPath id="id6"><path d="M 159.648438 159.851562 L 280.941406 168.914062 L 269.160156 326.601562 L 147.863281 317.539062 Z M 159.648438 159.851562 " clip-rule="nonzero"/></clipPath><clipPath id="id7"><path d="M 159.648438 159.851562 L 280.941406 168.914062 L 269.160156 326.601562 L 147.863281 317.539062 Z M 159.648438 159.851562 " clip-rule="nonzero"/></clipPath><clipPath id="id8"><path d="M 159.648438 159.851562 L 280.941406 168.914062 L 269.160156 326.601562 L 147.863281 317.539062 Z M 159.648438 159.851562 " clip-rule="nonzero"/></clipPath><clipPath id="id9"><path d="M 152 224 L 194 224 L 194 320 L 152 320 Z M 152 224 " clip-rule="nonzero"/></clipPath><clipPath id="id10"><path d="M 159.648438 159.851562 L 280.941406 168.914062 L 269.160156 326.601562 L 147.863281 317.539062 Z M 159.648438 159.851562 " clip-rule="nonzero"/></clipPath><clipPath id="id11"><path d="M 159.648438 159.851562 L 280.941406 168.914062 L 269.160156 326.601562 L 147.863281 317.539062 Z M 159.648438 159.851562 " clip-rule="nonzero"/></clipPath><clipPath id="id12"><path d="M 159.648438 159.851562 L 280.941406 168.914062 L 269.160156 326.601562 L 147.863281 317.539062 Z M 159.648438 159.851562 " clip-rule="nonzero"/></clipPath><clipPath id="id13"><path d="M 158 230 L 192 230 L 192 264 L 158 264 Z M 158 230 " clip-rule="nonzero"/></clipPath><clipPath id="id14"><path d="M 159.648438 159.851562 L 280.941406 168.914062 L 269.160156 326.601562 L 147.863281 317.539062 Z M 159.648438 159.851562 " clip-rule="nonzero"/></clipPath><clipPath id="id15"><path d="M 159.648438 159.851562 L 280.941406 168.914062 L 269.160156 326.601562 L 147.863281 317.539062 Z M 159.648438 159.851562 " clip-rule="nonzero"/></clipPath><clipPath id="id16"><path d="M 159.648438 159.851562 L 280.941406 168.914062 L 269.160156 326.601562 L 147.863281 317.539062 Z M 159.648438 159.851562 " clip-rule="nonzero"/></clipPath><clipPath id="id17"><path d="M 155 228 L 193 228 L 193 316 L 155 316 Z M 155 228 " clip-rule="nonzero"/></clipPath><clipPath id="id18"><path d="M 159.648438 159.851562 L 280.941406 168.914062 L 269.160156 326.601562 L 147.863281 317.539062 Z M 159.648438 159.851562 " clip-rule="nonzero"/></clipPath><clipPath id="id19"><path d="M 159.648438 159.851562 L 280.941406 168.914062 L 269.160156 326.601562 L 147.863281 317.539062 Z M 159.648438 159.851562 " clip-rule="nonzero"/></clipPath><clipPath id="id20"><path d="M 159.648438 159.851562 L 280.941406 168.914062 L 269.160156 326.601562 L 147.863281 317.539062 Z M 159.648438 159.851562 " clip-rule="nonzero"/></clipPath><clipPath id="id21"><path d="M 235 252 L 273 252 L 273 319 L 235 319 Z M 235 252 " clip-rule="nonzero"/></clipPath><clipPath id="id22"><path d="M 159.648438 159.851562 L 280.941406 168.914062 L 269.160156 326.601562 L 147.863281 317.539062 Z M 159.648438 159.851562 " clip-rule="nonzero"/></clipPath><clipPath id="id23"><path d="M 159.648438 159.851562 L 280.941406 168.914062 L 269.160156 326.601562 L 147.863281 317.539062 Z M 159.648438 159.851562 " clip-rule="nonzero"/></clipPath><clipPath id="id24"><path d="M 159.648438 159.851562 L 280.941406 168.914062 L 269.160156 326.601562 L 147.863281 317.539062 Z M 159.648438 159.851562 " clip-rule="nonzero"/></clipPath><clipPath id="id25"><path d="M 239 256 L 268 256 L 268 285 L 239 285 Z M 239 256 " clip-rule="nonzero"/></clipPath><clipPath id="id26"><path d="M 159.648438 159.851562 L 280.941406 168.914062 L 269.160156 326.601562 L 147.863281 317.539062 Z M 159.648438 159.851562 " clip-rule="nonzero"/></clipPath><clipPath id="id27"><path d="M 159.648438 159.851562 L 280.941406 168.914062 L 269.160156 326.601562 L 147.863281 317.539062 Z M 159.648438 159.851562 " clip-rule="nonzero"/></clipPath><clipPath id="id28"><path d="M 159.648438 159.851562 L 280.941406 168.914062 L 269.160156 326.601562 L 147.863281 317.539062 Z M 159.648438 159.851562 " clip-rule="nonzero"/></clipPath><clipPath id="id29"><path d="M 201 194 L 241 194 L 241 319 L 201 319 Z M 201 194 " clip-rule="nonzero"/></clipPath><clipPath id="id30"><path d="M 159.648438 159.851562 L 280.941406 168.914062 L 269.160156 326.601562 L 147.863281 317.539062 Z M 159.648438 159.851562 " clip-rule="nonzero"/></clipPath><clipPath id="id31"><path d="M 159.648438 159.851562 L 280.941406 168.914062 L 269.160156 326.601562 L 147.863281 317.539062 Z M 159.648438 159.851562 " clip-rule="nonzero"/></clipPath><clipPath id="id32"><path d="M 159.648438 159.851562 L 280.941406 168.914062 L 269.160156 326.601562 L 147.863281 317.539062 Z M 159.648438 159.851562 " clip-rule="nonzero"/></clipPath><clipPath id="id33"><path d="M 221 165 L 230 165 L 230 198 L 221 198 Z M 221 165 " clip-rule="nonzero"/></clipPath><clipPath id="id34"><path d="M 159.648438 159.851562 L 280.941406 168.914062 L 269.160156 326.601562 L 147.863281 317.539062 Z M 159.648438 159.851562 " clip-rule="nonzero"/></clipPath><clipPath id="id35"><path d="M 159.648438 159.851562 L 280.941406 168.914062 L 269.160156 326.601562 L 147.863281 317.539062 Z M 159.648438 159.851562 " clip-rule="nonzero"/></clipPath><clipPath id="id36"><path d="M 159.648438 159.851562 L 280.941406 168.914062 L 269.160156 326.601562 L 147.863281 317.539062 Z M 159.648438 159.851562 " clip-rule="nonzero"/></clipPath><clipPath id="id37"><path d="M 223 172 L 228 172 L 228 196 L 223 196 Z M 223 172 " clip-rule="nonzero"/></clipPath><clipPath id="id38"><path d="M 159.648438 159.851562 L 280.941406 168.914062 L 269.160156 326.601562 L 147.863281 317.539062 Z M 159.648438 159.851562 " clip-rule="nonzero"/></clipPath><clipPath id="id39"><path d="M 159.648438 159.851562 L 280.941406 168.914062 L 269.160156 326.601562 L 147.863281 317.539062 Z M 159.648438 159.851562 " clip-rule="nonzero"/></clipPath><clipPath id="id40"><path d="M 159.648438 159.851562 L 280.941406 168.914062 L 269.160156 326.601562 L 147.863281 317.539062 Z M 159.648438 159.851562 " clip-rule="nonzero"/></clipPath><clipPath id="id41"><path d="M 252 232 L 259 232 L 259 265 L 252 265 Z M 252 232 " clip-rule="nonzero"/></clipPath><clipPath id="id42"><path d="M 159.648438 159.851562 L 280.941406 168.914062 L 269.160156 326.601562 L 147.863281 317.539062 Z M 159.648438 159.851562 " clip-rule="nonzero"/></clipPath><clipPath id="id43"><path d="M 159.648438 159.851562 L 280.941406 168.914062 L 269.160156 326.601562 L 147.863281 317.539062 Z M 159.648438 159.851562 " clip-rule="nonzero"/></clipPath><clipPath id="id44"><path d="M 159.648438 159.851562 L 280.941406 168.914062 L 269.160156 326.601562 L 147.863281 317.539062 Z M 159.648438 159.851562 " clip-rule="nonzero"/></clipPath><clipPath id="id45"><path d="M 254 239 L 258 239 L 258 263 L 254 263 Z M 254 239 " clip-rule="nonzero"/></clipPath><clipPath id="id46"><path d="M 159.648438 159.851562 L 280.941406 168.914062 L 269.160156 326.601562 L 147.863281 317.539062 Z M 159.648438 159.851562 " clip-rule="nonzero"/></clipPath><clipPath id="id47"><path d="M 159.648438 159.851562 L 280.941406 168.914062 L 269.160156 326.601562 L 147.863281 317.539062 Z M 159.648438 159.851562 " clip-rule="nonzero"/></clipPath><clipPath id="id48"><path d="M 159.648438 159.851562 L 280.941406 168.914062 L 269.160156 326.601562 L 147.863281 317.539062 Z M 159.648438 159.851562 " clip-rule="nonzero"/></clipPath><clipPath id="id49"><path d="M 207 187 L 240 187 L 240 219 L 207 219 Z M 207 187 " clip-rule="nonzero"/></clipPath><clipPath id="id50"><path d="M 159.648438 159.851562 L 280.941406 168.914062 L 269.160156 326.601562 L 147.863281 317.539062 Z M 159.648438 159.851562 " clip-rule="nonzero"/></clipPath><clipPath id="id51"><path d="M 159.648438 159.851562 L 280.941406 168.914062 L 269.160156 326.601562 L 147.863281 317.539062 Z M 159.648438 159.851562 " clip-rule="nonzero"/></clipPath><clipPath id="id52"><path d="M 159.648438 159.851562 L 280.941406 168.914062 L 269.160156 326.601562 L 147.863281 317.539062 Z M 159.648438 159.851562 " clip-rule="nonzero"/></clipPath><clipPath id="id53"><path d="M 206 195 L 235 195 L 235 270 L 206 270 Z M 206 195 " clip-rule="nonzero"/></clipPath><clipPath id="id54"><path d="M 159.648438 159.851562 L 280.941406 168.914062 L 269.160156 326.601562 L 147.863281 317.539062 Z M 159.648438 159.851562 " clip-rule="nonzero"/></clipPath><clipPath id="id55"><path d="M 159.648438 159.851562 L 280.941406 168.914062 L 269.160156 326.601562 L 147.863281 317.539062 Z M 159.648438 159.851562 " clip-rule="nonzero"/></clipPath><clipPath id="id56"><path d="M 159.648438 159.851562 L 280.941406 168.914062 L 269.160156 326.601562 L 147.863281 317.539062 Z M 159.648438 159.851562 " clip-rule="nonzero"/></clipPath><clipPath id="id57"><path d="M 242 256 L 270 256 L 270 290 L 242 290 Z M 242 256 " clip-rule="nonzero"/></clipPath><clipPath id="id58"><path d="M 159.648438 159.851562 L 280.941406 168.914062 L 269.160156 326.601562 L 147.863281 317.539062 Z M 159.648438 159.851562 " clip-rule="nonzero"/></clipPath><clipPath id="id59"><path d="M 159.648438 159.851562 L 280.941406 168.914062 L 269.160156 326.601562 L 147.863281 317.539062 Z M 159.648438 159.851562 " clip-rule="nonzero"/></clipPath><clipPath id="id60"><path d="M 159.648438 159.851562 L 280.941406 168.914062 L 269.160156 326.601562 L 147.863281 317.539062 Z M 159.648438 159.851562 " clip-rule="nonzero"/></clipPath><clipPath id="id61"><path d="M 94.191406 67.199219 L 281.429688 67.199219 L 281.429688 337.480469 L 94.191406 337.480469 Z M 94.191406 67.199219 " clip-rule="nonzero"/></clipPath></defs><rect x="-37.5" width="450" fill="#ffffff" y="-37.499999" height="449.999989" fill-opacity="1"/><rect x="-37.5" width="450" fill="#ffffff" y="-37.499999" height="449.999989" fill-opacity="1"/><rect x="-37.5" width="450" fill="#ffffff" y="-37.499999" height="449.999989" fill-opacity="1"/><rect x="-37.5" width="450" fill="#ffffff" y="-37.499999" height="449.999989" fill-opacity="1"/><g clip-path="url(#id1)"><g clip-path="url(#id2)"><g clip-path="url(#id3)"><g clip-path="url(#id4)"><path fill="#f7ad33" d="M 174.4375 238.871094 C 173.917969 239.265625 173.167969 237.363281 173.121094 237.1875 C 172.523438 235.183594 172.546875 232.9375 172.816406 230.882812 C 173.742188 222.742188 177.695312 214.941406 179.386719 206.941406 C 179.472656 206.570312 179.449219 207.695312 179.503906 208.074219 C 179.601562 208.714844 179.726562 209.355469 179.824219 209.96875 C 180.207031 212.160156 180.648438 214.351562 180.855469 216.617188 C 181.359375 222.242188 180.425781 228.140625 179.40625 233.679688 C 178.953125 235.925781 178.785156 238.9375 175.976562 239.101562 " fill-opacity="1" fill-rule="evenodd"/></g></g></g></g><g clip-path="url(#id5)"><g clip-path="url(#id6)"><g clip-path="url(#id7)"><g clip-path="url(#id8)"><path fill="#f27324" d="M 175.78125 236.695312 C 173.929688 236.414062 174.5625 232.167969 174.664062 231.222656 C 175.121094 227.398438 179.03125 214.03125 179.019531 214.175781 C 178.515625 216.699219 179.488281 237.230469 175.78125 236.695312 Z M 175.78125 236.695312 " fill-opacity="1" fill-rule="evenodd"/></g></g></g></g><g clip-path="url(#id9)"><g clip-path="url(#id10)"><g clip-path="url(#id11)"><g clip-path="url(#id12)"><path fill="#f3e3c9" d="M 152.953125 311.550781 C 153.640625 298.117188 156.3125 244.203125 156.378906 242.5625 C 156.476562 240.09375 154.871094 224.183594 162.824219 224.949219 C 167.148438 225.359375 169.414062 233.195312 170.28125 236.628906 C 170.722656 238.421875 171.578125 241.625 173.835938 241.910156 C 178.488281 242.515625 180.285156 239.28125 184.121094 237.722656 C 186.171875 236.894531 186.910156 239.34375 188.65625 239.097656 C 189.707031 238.945312 191.980469 235.890625 192.851562 236.589844 C 194.292969 237.761719 193.773438 242.390625 193.746094 243.914062 C 193.6875 251.632812 190.703125 310.046875 190.507812 314.242188 C 190.390625 316.59375 180.367188 319.5625 172.070312 319.144531 C 163.65625 318.71875 152.722656 316.199219 152.953125 311.550781 Z M 152.953125 311.550781 " fill-opacity="1" fill-rule="evenodd"/></g></g></g></g><g clip-path="url(#id13)"><g clip-path="url(#id14)"><g clip-path="url(#id15)"><g clip-path="url(#id16)"><path fill="#79342b" d="M 175.976562 230.976562 C 175.980469 230.949219 175.984375 230.890625 175.988281 230.863281 C 176.019531 230.804688 176.050781 230.78125 176.054688 230.75 C 176.144531 230.671875 176.230469 230.679688 176.285156 230.710938 C 176.34375 230.714844 176.398438 230.75 176.449219 230.867188 C 176.449219 230.867188 176.472656 230.898438 176.46875 230.957031 C 176.46875 230.984375 176.464844 231.011719 176.460938 231.097656 C 176.445312 231.300781 176.441406 231.730469 176.398438 232.304688 C 176.359375 233.195312 176.292969 234.484375 176.1875 235.890625 C 176.128906 236.664062 176.070312 237.464844 176.011719 238.269531 C 175.949219 239.097656 175.886719 239.902344 175.804688 240.644531 C 175.652344 242.304688 175.519531 243.679688 175.476562 244.222656 C 175.464844 244.394531 175.3125 244.5 175.171875 244.488281 C 175 244.472656 174.894531 244.324219 174.90625 244.179688 C 174.945312 243.636719 175.019531 242.285156 175.117188 240.59375 C 175.171875 239.847656 175.203125 239.042969 175.292969 238.214844 C 175.351562 237.414062 175.414062 236.609375 175.5 235.839844 C 175.632812 234.4375 175.757812 233.179688 175.824219 232.261719 C 175.867188 231.6875 175.925781 231.289062 175.941406 231.089844 L 176 231.09375 C 176 231.0625 175.972656 231.0625 175.972656 231.035156 C 175.976562 230.976562 175.976562 230.976562 175.976562 230.976562 Z M 175.972656 231.0625 C 175.972656 231.0625 175.972656 231.035156 175.972656 231.0625 L 175.976562 231.003906 C 175.777344 230.988281 175.832031 231.023438 175.972656 231.0625 Z M 191.542969 237.5 C 191.40625 237.429688 191.230469 237.476562 191.160156 237.644531 C 190.753906 238.449219 189.773438 239.960938 188.734375 241.148438 C 188.007812 241.988281 187.269531 242.652344 186.652344 242.808594 C 186.121094 242.941406 185.605469 242.90625 185.09375 242.835938 C 184.523438 242.765625 183.953125 242.664062 183.378906 242.652344 C 182.855469 242.671875 182.332031 242.746094 181.820312 243.023438 C 181.34375 243.277344 180.695312 243.429688 179.992188 243.609375 C 179.023438 243.851562 177.988281 244.179688 177.136719 244.808594 C 176.28125 245.433594 175.605469 246.363281 175.378906 247.84375 C 174.886719 250.976562 174.351562 255.808594 173.496094 259.203125 C 173.164062 260.53125 172.792969 261.628906 172.339844 262.3125 C 172.082031 262.699219 171.832031 262.9375 171.519531 262.886719 C 171.316406 262.871094 171.214844 262.691406 171.117188 262.480469 C 170.921875 262.007812 170.832031 261.277344 170.808594 260.414062 C 170.746094 256.632812 171.890625 250.179688 171.34375 247.484375 C 171.132812 246.460938 170.65625 245.90625 169.925781 245.996094 C 168.882812 246.09375 168.117188 245.515625 167.523438 244.609375 C 166.28125 242.726562 165.683594 239.542969 164.910156 237.554688 C 164.742188 237.082031 164.574219 236.636719 164.410156 236.164062 C 164.171875 235.453125 163.9375 234.746094 163.730469 234.039062 C 163.707031 233.976562 163.527344 233.300781 163.402344 233.0625 C 163.300781 232.882812 163.15625 232.84375 163.101562 232.835938 C 162.953125 232.855469 162.859375 232.964844 162.851562 233.105469 C 162.84375 233.191406 162.894531 233.253906 162.953125 233.289062 C 163.050781 233.496094 163.207031 234.113281 163.230469 234.171875 C 163.441406 234.851562 163.648438 235.558594 163.882812 236.238281 C 163.792969 236.289062 163.734375 236.285156 163.671875 236.367188 C 163.613281 236.390625 163.550781 236.445312 163.519531 236.5 C 163.433594 236.492188 163.34375 236.515625 163.28125 236.566406 C 162.878906 236.96875 162.632812 237.558594 162.46875 238.207031 C 162.257812 239.085938 162.214844 240.0625 162.132812 240.746094 C 161.878906 243.03125 161.925781 245.457031 161.722656 247.804688 C 161.617188 248.804688 161.488281 249.773438 161.242188 250.738281 C 161.121094 251.21875 160.683594 252.050781 160.203125 252.332031 C 160.144531 252.355469 160.082031 252.378906 160.027344 252.375 C 159.996094 252.371094 159.972656 252.339844 159.917969 252.28125 C 159.839844 252.1875 159.792969 252.039062 159.722656 251.832031 C 159.5625 251.273438 159.488281 250.691406 159.503906 250.117188 C 159.515625 249.195312 159.644531 248.253906 159.734375 247.398438 C 159.929688 245.96875 160.121094 244.542969 160.230469 243.113281 C 160.300781 242.136719 160.34375 241.191406 160.332031 240.207031 C 160.316406 240.035156 160.386719 239.058594 160.285156 238.476562 C 160.269531 238.300781 160.222656 238.15625 160.144531 238.0625 C 160.09375 238 160.039062 237.941406 159.984375 237.90625 C 159.84375 237.839844 159.695312 237.886719 159.628906 238.023438 C 159.5625 238.132812 159.613281 238.253906 159.691406 238.347656 C 159.691406 238.347656 159.71875 238.347656 159.71875 238.375 L 159.746094 238.378906 C 159.746094 238.378906 159.746094 238.378906 159.71875 238.375 C 159.714844 238.40625 159.710938 238.460938 159.738281 238.492188 C 159.78125 238.667969 159.792969 238.929688 159.773438 239.1875 C 159.765625 239.648438 159.730469 240.136719 159.75 240.25 C 159.738281 241.203125 159.695312 242.148438 159.597656 243.09375 C 159.460938 244.523438 159.242188 245.917969 159.046875 247.34375 C 158.925781 248.230469 158.765625 249.195312 158.753906 250.148438 C 158.761719 250.808594 158.824219 251.476562 158.980469 252.09375 C 159.144531 252.625 159.378906 252.929688 159.601562 253.0625 C 159.90625 253.230469 160.222656 253.195312 160.527344 253.015625 C 161.128906 252.660156 161.757812 251.582031 161.917969 250.988281 C 162.164062 250 162.296875 248.972656 162.402344 247.941406 C 162.609375 245.59375 162.5 243.167969 162.730469 240.878906 C 162.808594 240.222656 162.820312 239.269531 163.027344 238.421875 C 163.15625 237.882812 163.335938 237.40625 163.648438 237.085938 C 163.679688 237.058594 163.710938 237.003906 163.714844 236.945312 C 163.746094 236.949219 163.773438 236.949219 163.773438 236.949219 C 163.800781 236.953125 163.769531 236.980469 163.796875 237.011719 C 163.824219 237.011719 163.796875 237.039062 163.824219 237.039062 C 163.851562 237.042969 163.851562 237.070312 163.878906 237.074219 C 163.90625 237.074219 163.90625 237.074219 163.9375 237.078125 C 163.996094 237.054688 164.023438 237.054688 164.054688 237.03125 C 164.152344 237.296875 164.242188 237.589844 164.339844 237.859375 C 165.105469 239.933594 165.703125 243.144531 166.96875 245.085938 C 167.691406 246.203125 168.652344 246.882812 169.957031 246.777344 C 170.246094 246.742188 170.402344 246.984375 170.519531 247.308594 C 170.691406 247.753906 170.757812 248.363281 170.761719 249.113281 C 170.808594 251.164062 170.445312 254.132812 170.214844 256.796875 C 170.03125 258.886719 169.945312 260.78125 170.140625 262.035156 C 170.21875 262.53125 170.363281 262.914062 170.546875 263.1875 C 170.75 263.519531 171.023438 263.714844 171.367188 263.769531 C 171.792969 263.828125 172.207031 263.6875 172.582031 263.3125 C 173.015625 262.882812 173.390625 262.132812 173.722656 261.148438 C 174.867188 257.804688 175.515625 251.804688 176.054688 248.097656 C 176.234375 246.84375 176.8125 246.050781 177.515625 245.5 C 178.308594 244.921875 179.253906 244.621094 180.132812 244.398438 C 180.898438 244.195312 181.605469 244.015625 182.113281 243.738281 C 182.535156 243.511719 182.941406 243.453125 183.347656 243.425781 C 183.898438 243.410156 184.4375 243.507812 184.980469 243.578125 C 185.578125 243.652344 186.183594 243.667969 186.769531 243.539062 C 187.472656 243.359375 188.335938 242.617188 189.160156 241.644531 C 190.230469 240.398438 191.242188 238.832031 191.652344 237.996094 C 191.757812 237.746094 191.683594 237.566406 191.542969 237.5 Z M 159.667969 238.285156 C 159.667969 238.285156 159.667969 238.285156 159.695312 238.316406 L 159.667969 238.285156 C 159.695312 238.289062 159.695312 238.289062 159.667969 238.285156 Z M 159.667969 238.285156 " fill-opacity="1" fill-rule="evenodd"/></g></g></g></g><g clip-path="url(#id17)"><g clip-path="url(#id18)"><g clip-path="url(#id19)"><g clip-path="url(#id20)"><path fill="#ffffff" d="M 163.765625 230.898438 C 163.558594 230.539062 163.324219 230.203125 163.03125 229.894531 C 162.980469 229.832031 162.542969 229.511719 162.378906 229.355469 C 162.246094 229.230469 162.226562 229.113281 162.230469 229.054688 C 162.242188 228.914062 162.363281 228.804688 162.507812 228.816406 C 162.59375 228.824219 162.648438 228.855469 162.703125 228.917969 C 162.726562 228.949219 162.753906 229.007812 162.75 229.066406 C 162.75 229.066406 162.753906 228.980469 162.757812 228.949219 C 162.945312 229.109375 163.386719 229.402344 163.4375 229.460938 C 163.789062 229.804688 164.050781 230.171875 164.308594 230.566406 C 164.539062 230.957031 164.738281 231.375 164.9375 231.792969 C 165.183594 232.359375 165.367188 232.949219 165.523438 233.566406 C 165.683594 234.152344 165.808594 234.769531 165.910156 235.351562 C 166.140625 236.523438 166.308594 237.714844 166.65625 238.835938 C 166.816406 239.398438 167.039062 239.933594 167.285156 240.46875 C 167.359375 240.617188 167.320312 240.789062 167.167969 240.863281 C 167.019531 240.9375 166.851562 240.898438 166.773438 240.746094 C 166.320312 239.90625 166.007812 239.046875 165.757812 238.164062 C 165.488281 237.136719 165.277344 236.082031 165.097656 235.0625 C 164.882812 234.066406 164.699219 233.042969 164.3125 232.0625 C 164.140625 231.648438 163.96875 231.261719 163.765625 230.898438 Z M 162.699219 228.945312 C 162.726562 228.949219 162.726562 228.949219 162.699219 228.945312 L 162.726562 228.976562 C 162.730469 228.921875 162.734375 228.890625 162.699219 228.945312 Z M 168.015625 234.53125 C 168.089844 234.707031 168.132812 234.914062 168.175781 235.089844 C 168.226562 235.207031 168.246094 235.355469 168.292969 235.472656 C 168.339844 235.59375 168.386719 235.738281 168.4375 235.859375 C 168.558594 236.15625 168.652344 236.449219 168.777344 236.71875 C 168.824219 236.867188 168.992188 236.9375 169.167969 236.894531 C 169.3125 236.847656 169.382812 236.679688 169.339844 236.503906 C 169.246094 236.207031 169.1875 235.855469 169.101562 235.476562 C 169.054688 235.328125 169.035156 235.183594 168.988281 235.0625 C 168.964844 234.976562 168.914062 234.886719 168.890625 234.796875 C 168.71875 234.382812 168.492188 233.988281 168.25 233.710938 C 168.175781 233.589844 168.003906 233.550781 167.882812 233.65625 C 167.761719 233.734375 167.71875 233.902344 167.796875 234.023438 C 167.902344 234.148438 167.945312 234.324219 168.015625 234.53125 Z M 177.996094 243.71875 C 177.535156 244.058594 177.132812 244.433594 176.707031 244.773438 C 176.398438 245.011719 176.09375 245.246094 175.789062 245.457031 C 175.636719 245.558594 175.457031 245.660156 175.277344 245.761719 C 175.097656 245.863281 174.917969 245.9375 174.738281 246.011719 C 174.589844 246.085938 174.152344 246.167969 174.035156 246.160156 C 173.75 246.140625 173.707031 245.933594 173.773438 245.824219 C 173.777344 245.796875 173.8125 245.710938 173.929688 245.664062 C 173.992188 245.609375 174.105469 245.617188 174.160156 245.652344 C 174.28125 245.601562 174.429688 245.527344 174.488281 245.503906 C 174.640625 245.425781 174.789062 245.324219 174.941406 245.25 C 175.09375 245.144531 175.214844 245.039062 175.367188 244.933594 C 175.582031 244.777344 175.796875 244.589844 176.011719 244.40625 C 176.347656 244.144531 176.6875 243.878906 177.023438 243.617188 C 177.417969 243.328125 177.8125 243.070312 178.261719 242.84375 C 178.410156 242.769531 178.582031 242.8125 178.65625 242.960938 C 178.730469 243.109375 178.691406 243.28125 178.539062 243.355469 C 178.363281 243.429688 178.175781 243.589844 177.996094 243.71875 Z M 174.132812 245.648438 C 174.078125 245.617188 174.050781 245.585938 174.046875 245.640625 C 174.046875 245.640625 174.074219 245.644531 174.132812 245.648438 Z M 191.195312 254.128906 C 191.367188 254.140625 191.492188 254.003906 191.503906 253.832031 C 191.539062 252.625 191.574219 251.390625 191.632812 250.183594 C 191.6875 249.09375 191.769531 247.976562 191.824219 246.882812 C 191.878906 246.140625 191.902344 245.421875 191.957031 244.675781 L 192.136719 241.519531 L 192.175781 240.601562 C 192.183594 240.515625 192.175781 240.226562 192.15625 240.109375 C 192.15625 240.109375 192.15625 240.109375 192.15625 240.082031 C 192.167969 239.964844 192.117188 239.875 192.035156 239.8125 C 192.035156 239.8125 191.660156 239.785156 191.667969 240.101562 C 191.65625 240.214844 191.667969 240.476562 191.660156 240.5625 L 191.59375 241.449219 L 191.273438 244.597656 C 191.214844 245.371094 191.132812 246.113281 191.074219 246.886719 C 191.015625 247.660156 190.988281 248.40625 190.960938 249.183594 C 190.902344 250.734375 190.902344 252.261719 190.902344 253.789062 C 190.886719 253.988281 191.023438 254.113281 191.195312 254.128906 Z M 191.304688 258.832031 C 191.316406 258.6875 191.324219 258.546875 191.304688 258.429688 C 191.320312 258.230469 191.308594 258.027344 191.296875 257.792969 L 191.273438 256.929688 C 191.28125 256.8125 191.324219 256.617188 191.332031 256.53125 C 191.339844 256.445312 191.289062 256.351562 191.261719 256.324219 C 191.207031 256.261719 191.097656 256.195312 190.949219 256.242188 C 190.804688 256.289062 190.734375 256.425781 190.753906 256.542969 C 190.753906 256.542969 190.753906 256.574219 190.78125 256.574219 C 190.777344 256.601562 190.75 256.628906 190.746094 256.660156 C 190.710938 256.742188 190.703125 256.828125 190.699219 256.886719 L 190.605469 257.773438 C 190.589844 257.972656 190.574219 258.171875 190.558594 258.402344 C 190.546875 258.546875 190.566406 258.691406 190.558594 258.804688 C 190.574219 259.324219 190.59375 259.84375 190.613281 260.367188 C 190.601562 260.539062 190.734375 260.664062 190.910156 260.648438 C 191.082031 260.660156 191.207031 260.523438 191.21875 260.351562 C 191.257812 259.867188 191.292969 259.351562 191.304688 258.832031 Z M 155.972656 295.4375 C 156.144531 295.449219 156.269531 295.316406 156.28125 295.171875 C 156.410156 293.453125 156.511719 291.703125 156.582031 289.980469 C 156.613281 289.175781 156.644531 288.371094 156.675781 287.566406 C 156.707031 286.761719 156.710938 285.953125 156.710938 285.148438 C 156.746094 283.941406 156.75 282.730469 156.8125 281.523438 C 156.84375 280.316406 156.90625 279.113281 156.996094 277.910156 C 157.003906 277.765625 156.898438 277.640625 156.753906 277.632812 C 156.613281 277.621094 156.488281 277.726562 156.480469 277.871094 C 156.292969 279.585938 156.164062 281.332031 156.0625 283.054688 C 156.03125 283.859375 156 284.664062 155.96875 285.46875 C 155.9375 286.273438 155.90625 287.078125 155.902344 287.882812 C 155.867188 290.300781 155.828125 292.71875 155.679688 295.128906 C 155.695312 295.300781 155.828125 295.425781 155.972656 295.4375 Z M 155.972656 301.230469 C 155.960938 300.996094 155.949219 300.765625 155.9375 300.535156 C 155.929688 300.273438 155.917969 300.042969 155.902344 299.839844 C 155.890625 299.609375 155.90625 299.4375 155.945312 299.296875 C 155.949219 299.238281 155.953125 299.183594 155.984375 299.15625 C 156.078125 299.046875 156.0625 298.875 155.953125 298.808594 C 155.84375 298.710938 155.667969 298.730469 155.601562 298.839844 C 155.507812 298.945312 155.4375 299.113281 155.363281 299.339844 C 155.289062 299.59375 155.261719 299.9375 155.230469 300.339844 C 155.21875 300.539062 155.226562 300.769531 155.214844 300.972656 C 155.226562 301.171875 155.238281 301.40625 155.253906 301.609375 C 155.285156 301.925781 155.320312 302.246094 155.355469 302.539062 C 155.414062 302.917969 155.449219 303.234375 155.433594 303.4375 C 155.417969 303.609375 155.554688 303.734375 155.726562 303.746094 C 155.898438 303.757812 156.023438 303.625 156.035156 303.480469 C 156.054688 303.222656 156.0625 302.734375 156.046875 302.15625 C 155.988281 301.804688 155.980469 301.519531 155.972656 301.230469 Z M 157.542969 311.835938 C 157.542969 311.835938 157.546875 311.777344 157.542969 311.835938 C 157.515625 311.832031 157.515625 311.832031 157.542969 311.835938 C 157.539062 311.863281 157.515625 311.832031 157.542969 311.835938 Z M 157.511719 311.863281 C 157.515625 311.832031 157.515625 311.832031 157.511719 311.863281 Z M 169.425781 315.199219 C 167.625 315.382812 166.023438 315.207031 164.523438 314.835938 C 164.128906 314.746094 163.761719 314.632812 163.367188 314.519531 C 162.804688 314.332031 162.242188 314.144531 161.679688 313.929688 C 160.417969 313.460938 159.164062 312.90625 157.820312 312.347656 C 157.917969 312.238281 157.925781 312.09375 157.820312 311.972656 C 157.710938 311.875 157.570312 311.867188 157.476562 311.945312 L 157.480469 311.917969 C 157.507812 311.917969 157.480469 311.886719 157.480469 311.886719 C 157.480469 311.886719 157.484375 311.859375 157.480469 311.886719 C 157.480469 311.886719 157.484375 311.859375 157.480469 311.886719 C 157.507812 311.917969 157.484375 311.859375 157.484375 311.832031 C 157.457031 311.828125 157.429688 311.828125 157.425781 311.882812 C 157.421875 311.914062 157.394531 311.882812 157.394531 311.910156 C 157.273438 311.960938 157.207031 312.097656 157.226562 312.214844 C 157.167969 312.238281 157.136719 312.265625 157.101562 312.320312 C 157.035156 312.460938 157.109375 312.609375 157.25 312.648438 C 158.703125 313.304688 160.03125 314.007812 161.402344 314.574219 C 161.988281 314.816406 162.550781 315.03125 163.140625 315.222656 C 163.535156 315.335938 163.929688 315.453125 164.328125 315.539062 C 165.914062 315.917969 167.578125 316.015625 169.46875 315.75 C 169.644531 315.734375 169.742188 315.570312 169.726562 315.425781 C 169.734375 315.28125 169.570312 315.183594 169.425781 315.199219 Z M 174.246094 315.101562 C 174.042969 315.113281 173.871094 315.101562 173.667969 315.113281 C 173.554688 315.105469 173.40625 315.125 173.292969 315.144531 C 173.117188 315.160156 172.972656 315.179688 172.796875 315.222656 C 172.621094 315.238281 172.472656 315.285156 172.296875 315.328125 C 172.152344 315.320312 172.058594 315.457031 172.046875 315.597656 C 172.035156 315.742188 172.171875 315.839844 172.316406 315.847656 C 172.488281 315.863281 172.65625 315.902344 172.800781 315.914062 C 172.972656 315.925781 173.144531 315.941406 173.289062 315.921875 C 173.4375 315.902344 173.554688 315.882812 173.699219 315.867188 C 173.902344 315.824219 174.109375 315.78125 174.285156 315.738281 C 174.429688 315.71875 174.558594 315.554688 174.539062 315.410156 C 174.554688 315.179688 174.390625 315.082031 174.246094 315.101562 Z M 178.164062 315.132812 C 178.160156 315.164062 178.160156 315.164062 178.164062 315.132812 C 178.160156 315.191406 178.1875 315.164062 178.164062 315.132812 Z M 185.171875 312.371094 C 184.429688 312.632812 183.691406 312.894531 182.925781 313.125 C 182.480469 313.265625 182.039062 313.40625 181.566406 313.574219 C 180.886719 313.78125 180.207031 314.019531 179.527344 314.226562 C 179.4375 314.25 178.382812 314.488281 177.996094 314.660156 C 177.878906 314.707031 177.785156 314.761719 177.753906 314.816406 C 177.691406 314.867188 177.6875 314.953125 177.683594 315.011719 C 177.671875 315.15625 177.804688 315.28125 177.953125 315.261719 C 178.007812 315.265625 178.066406 315.242188 178.128906 315.1875 C 178.128906 315.1875 178.128906 315.1875 178.160156 315.164062 C 178.191406 315.136719 178.222656 315.109375 178.226562 315.050781 C 178.222656 315.082031 178.21875 315.136719 178.1875 315.164062 C 178.574219 315.050781 179.621094 314.898438 179.710938 314.875 C 180.089844 314.789062 180.472656 314.699219 180.882812 314.585938 C 181.265625 314.472656 181.648438 314.355469 182.035156 314.242188 C 182.476562 314.101562 182.949219 313.933594 183.394531 313.765625 C 184.078125 313.5 184.730469 313.234375 185.386719 312.964844 C 185.535156 312.917969 185.605469 312.722656 185.558594 312.574219 C 185.484375 312.394531 185.320312 312.296875 185.171875 312.371094 Z M 185.171875 312.371094 " fill-opacity="1" fill-rule="nonzero"/></g></g></g></g><g clip-path="url(#id21)"><g clip-path="url(#id22)"><g clip-path="url(#id23)"><g clip-path="url(#id24)"><path fill="#f3e3c9" d="M 268.007812 314.613281 C 268.695312 305.015625 271.539062 266.558594 271.628906 265.382812 C 271.789062 263.609375 274.667969 252.46875 267.792969 252.300781 C 264.082031 252.199219 261.40625 257.558594 260.335938 259.898438 C 259.785156 261.125 258.753906 263.324219 256.796875 263.324219 C 252.757812 263.339844 251.558594 260.886719 248.441406 259.414062 C 246.769531 258.65625 245.921875 260.320312 244.449219 259.980469 C 243.574219 259.769531 241.933594 257.402344 241.125 257.828125 C 239.773438 258.535156 239.785156 261.851562 239.675781 262.9375 C 239.007812 268.417969 236.003906 310.121094 235.753906 313.097656 C 235.628906 314.789062 243.875 317.796875 250.992188 318.242188 C 258.21875 318.722656 267.757812 317.9375 268.007812 314.613281 Z M 268.007812 314.613281 " fill-opacity="1" fill-rule="evenodd"/></g></g></g></g><g clip-path="url(#id25)"><g clip-path="url(#id26)"><g clip-path="url(#id27)"><g clip-path="url(#id28)"><path fill="#ffffff" d="M 266.378906 258.101562 C 266.578125 257.773438 266.828125 257.472656 267.109375 257.179688 C 267.171875 257.125 267.566406 256.867188 267.722656 256.707031 C 267.847656 256.597656 267.882812 256.488281 267.886719 256.429688 C 267.898438 256.285156 267.792969 256.164062 267.675781 256.15625 C 267.589844 256.148438 267.5625 256.175781 267.5 256.226562 C 267.46875 256.253906 267.433594 256.308594 267.429688 256.367188 C 267.429688 256.367188 267.4375 256.28125 267.441406 256.253906 C 267.257812 256.382812 266.863281 256.640625 266.800781 256.695312 C 266.460938 256.984375 266.207031 257.339844 265.949219 257.695312 C 265.71875 258.054688 265.488281 258.441406 265.285156 258.855469 C 265.015625 259.382812 264.800781 259.945312 264.582031 260.5625 C 264.394531 261.125 264.207031 261.714844 264.050781 262.28125 C 263.734375 263.410156 263.445312 264.570312 263.046875 265.664062 C 262.863281 266.195312 262.59375 266.695312 262.324219 267.222656 C 262.257812 267.363281 262.273438 267.535156 262.382812 267.628906 C 262.488281 267.726562 262.636719 267.707031 262.730469 267.570312 C 263.222656 266.800781 263.574219 265.960938 263.867188 265.121094 C 264.199219 264.136719 264.507812 263.09375 264.753906 262.101562 C 265.054688 261.144531 265.304688 260.15625 265.75 259.207031 C 265.980469 258.824219 266.179688 258.464844 266.378906 258.101562 Z M 267.496094 256.285156 C 267.464844 256.28125 267.464844 256.28125 267.496094 256.285156 L 267.464844 256.3125 C 267.46875 256.253906 267.46875 256.226562 267.496094 256.285156 Z M 262.371094 261.234375 C 262.300781 261.402344 262.226562 261.597656 262.1875 261.765625 C 262.121094 261.875 262.109375 262.019531 262.042969 262.128906 C 261.976562 262.242188 261.9375 262.382812 261.871094 262.492188 C 261.734375 262.769531 261.628906 263.050781 261.496094 263.300781 C 261.425781 263.4375 261.277344 263.484375 261.140625 263.417969 C 261.03125 263.351562 260.984375 263.175781 261.027344 263.003906 C 261.132812 262.726562 261.21875 262.386719 261.332031 262.019531 C 261.398438 261.878906 261.410156 261.738281 261.476562 261.628906 C 261.511719 261.542969 261.546875 261.460938 261.582031 261.375 C 261.78125 260.988281 262.011719 260.628906 262.234375 260.359375 C 262.300781 260.246094 262.472656 260.230469 262.550781 260.351562 C 262.660156 260.449219 262.675781 260.621094 262.582031 260.730469 C 262.511719 260.867188 262.441406 261.035156 262.371094 261.234375 Z M 252.894531 269.253906 C 253.238281 269.65625 253.554688 270.054688 253.871094 270.453125 C 254.109375 270.730469 254.351562 270.976562 254.589844 271.226562 C 254.695312 271.347656 254.859375 271.476562 254.996094 271.601562 C 255.128906 271.726562 255.296875 271.828125 255.433594 271.921875 C 255.539062 272.019531 255.90625 272.132812 256.019531 272.140625 C 256.277344 272.160156 256.324219 271.960938 256.273438 271.84375 C 256.277344 271.8125 256.253906 271.726562 256.171875 271.660156 C 256.117188 271.601562 256.03125 271.59375 255.972656 271.617188 C 255.890625 271.554688 255.753906 271.457031 255.699219 271.425781 C 255.589844 271.328125 255.457031 271.203125 255.347656 271.109375 C 255.242188 270.988281 255.136719 270.863281 255.03125 270.742188 C 254.871094 270.554688 254.714844 270.34375 254.527344 270.15625 C 254.261719 269.847656 254.023438 269.570312 253.757812 269.261719 C 253.464844 268.921875 253.140625 268.640625 252.789062 268.355469 C 252.679688 268.257812 252.535156 268.277344 252.4375 268.414062 C 252.371094 268.554688 252.386719 268.726562 252.492188 268.820312 C 252.601562 268.917969 252.761719 269.101562 252.894531 269.253906 Z M 255.972656 271.617188 C 256.03125 271.59375 256.0625 271.566406 256.058594 271.625 C 256.058594 271.625 256.03125 271.621094 255.972656 271.617188 Z M 240.527344 278.128906 C 240.386719 278.117188 240.28125 277.964844 240.292969 277.792969 C 240.382812 276.589844 240.503906 275.359375 240.566406 274.15625 C 240.648438 273.066406 240.675781 271.945312 240.753906 270.855469 C 240.78125 270.109375 240.835938 269.390625 240.863281 268.644531 L 241.042969 265.488281 L 241.109375 264.570312 C 241.117188 264.484375 241.136719 264.199219 241.175781 264.085938 C 241.175781 264.085938 241.175781 264.085938 241.175781 264.058594 C 241.1875 263.941406 241.222656 263.859375 241.3125 263.808594 C 241.3125 263.808594 241.625 263.832031 241.601562 264.148438 C 241.59375 264.261719 241.574219 264.519531 241.570312 264.605469 L 241.53125 265.496094 L 241.46875 268.660156 C 241.4375 269.4375 241.441406 270.1875 241.382812 270.960938 C 241.351562 271.734375 241.296875 272.480469 241.238281 273.253906 C 241.125 274.800781 240.953125 276.316406 240.78125 277.832031 C 240.824219 278.035156 240.699219 278.140625 240.527344 278.128906 Z M 239.949219 282.78125 C 239.960938 282.636719 239.972656 282.496094 239.980469 282.378906 C 239.996094 282.179688 240.011719 281.980469 240.054688 281.753906 L 240.179688 280.898438 C 240.1875 280.78125 240.171875 280.578125 240.179688 280.492188 C 240.1875 280.40625 240.25 280.328125 240.25 280.296875 C 240.3125 280.246094 240.402344 280.195312 240.515625 280.257812 C 240.625 280.324219 240.671875 280.472656 240.632812 280.585938 C 240.632812 280.585938 240.632812 280.613281 240.601562 280.613281 C 240.601562 280.640625 240.628906 280.671875 240.625 280.699219 C 240.648438 280.789062 240.640625 280.875 240.636719 280.929688 L 240.628906 281.824219 C 240.613281 282.023438 240.597656 282.226562 240.609375 282.457031 C 240.597656 282.601562 240.558594 282.742188 240.578125 282.859375 C 240.511719 283.371094 240.445312 283.886719 240.378906 284.398438 C 240.363281 284.570312 240.242188 284.675781 240.101562 284.636719 C 239.957031 284.625 239.851562 284.476562 239.867188 284.304688 C 239.875 283.8125 239.882812 283.296875 239.949219 282.78125 Z M 239.949219 282.78125 " fill-opacity="1" fill-rule="nonzero"/></g></g></g></g><g clip-path="url(#id29)"><g clip-path="url(#id30)"><g clip-path="url(#id31)"><g clip-path="url(#id32)"><path fill="#f3e3c9" d="M 201.527344 309.472656 C 201.0625 304.484375 204.503906 202.535156 206.386719 199.679688 C 206.386719 199.679688 210.714844 191.53125 232.148438 195.148438 C 241.738281 196.761719 241.015625 203.332031 239.605469 214.523438 C 238.074219 226.914062 233.914062 299.5625 232.734375 311.460938 C 232.476562 314.148438 225.578125 318.53125 217.886719 318.074219 C 209.707031 317.664062 201.730469 311.738281 201.527344 309.472656 Z M 201.527344 309.472656 " fill-opacity="1" fill-rule="evenodd"/></g></g></g></g><g clip-path="url(#id33)"><g clip-path="url(#id34)"><g clip-path="url(#id35)"><g clip-path="url(#id36)"><path fill="#f7ad33" d="M 223.082031 197.269531 C 222.5625 197.660156 221.8125 195.761719 221.769531 195.585938 C 221.167969 193.582031 221.191406 191.335938 221.460938 189.28125 C 222.386719 181.136719 226.339844 173.335938 228.035156 165.335938 C 228.121094 164.96875 228.09375 166.089844 228.152344 166.46875 C 228.246094 167.109375 228.371094 167.753906 228.46875 168.367188 C 228.855469 170.554688 229.296875 172.75 229.5 175.011719 C 230.003906 180.640625 229.074219 186.535156 228.054688 192.078125 C 227.597656 194.320312 227.429688 197.332031 224.621094 197.496094 " fill-opacity="1" fill-rule="evenodd"/></g></g></g></g><g clip-path="url(#id37)"><g clip-path="url(#id38)"><g clip-path="url(#id39)"><g clip-path="url(#id40)"><path fill="#f27324" d="M 224.425781 195.09375 C 222.574219 194.808594 223.210938 190.5625 223.308594 189.621094 C 223.765625 185.792969 227.675781 172.425781 227.667969 172.570312 C 227.160156 175.097656 228.132812 195.628906 224.425781 195.09375 Z M 224.425781 195.09375 " fill-opacity="1" fill-rule="evenodd"/></g></g></g></g><g clip-path="url(#id41)"><g clip-path="url(#id42)"><g clip-path="url(#id43)"><g clip-path="url(#id44)"><path fill="#f7ad33" d="M 256.449219 264.851562 C 256.847656 265.316406 257.675781 263.476562 257.746094 263.335938 C 258.464844 261.402344 258.691406 259.171875 258.703125 257.097656 C 258.765625 248.890625 256.234375 240.71875 255.664062 232.550781 C 255.636719 232.175781 255.523438 233.289062 255.4375 233.65625 C 255.304688 234.28125 255.113281 234.902344 254.953125 235.523438 C 254.390625 237.671875 253.769531 239.785156 253.34375 242 C 252.296875 247.542969 252.457031 253.488281 252.757812 259.101562 C 252.90625 261.390625 252.738281 264.402344 255.09375 264.867188 " fill-opacity="1" fill-rule="evenodd"/></g></g></g></g><g clip-path="url(#id45)"><g clip-path="url(#id46)"><g clip-path="url(#id47)"><g clip-path="url(#id48)"><path fill="#f27324" d="M 255.527344 262.535156 C 257.121094 262.453125 257.0625 258.183594 257.050781 257.203125 C 257.050781 253.34375 255.164062 239.632812 255.183594 239.777344 C 255.335938 242.351562 252.320312 262.644531 255.527344 262.535156 Z M 255.527344 262.535156 " fill-opacity="1" fill-rule="evenodd"/></g></g></g></g><g clip-path="url(#id49)"><g clip-path="url(#id50)"><g clip-path="url(#id51)"><g clip-path="url(#id52)"><path fill="#79342b" d="M 216.097656 201.644531 C 216.03125 201.753906 215.882812 201.800781 215.773438 201.734375 C 214.726562 201.109375 213.523438 200.992188 212.292969 200.871094 C 211.863281 200.839844 211.464844 200.78125 211.039062 200.71875 C 210.609375 200.65625 210.183594 200.597656 209.789062 200.453125 C 209.253906 200.296875 208.777344 200.117188 208.28125 199.820312 C 207.949219 199.625 207.765625 199.351562 207.648438 198.996094 C 207.535156 198.585938 207.539062 198.179688 207.53125 197.890625 C 207.535156 197.835938 207.539062 197.804688 207.539062 197.777344 C 207.539062 197.777344 207.539062 197.777344 207.566406 197.78125 C 207.566406 197.78125 207.566406 197.78125 207.542969 197.75 C 207.542969 197.71875 207.542969 197.71875 207.515625 197.71875 C 207.460938 197.65625 207.46875 197.542969 207.535156 197.460938 C 207.597656 197.378906 207.742188 197.359375 207.851562 197.453125 C 207.90625 197.515625 207.929688 197.574219 207.976562 197.695312 C 208.019531 197.898438 207.984375 198.359375 208.15625 198.804688 C 208.226562 198.980469 208.355469 199.191406 208.578125 199.324219 C 209.019531 199.558594 209.46875 199.707031 209.949219 199.859375 C 210.433594 199.953125 210.941406 200.050781 211.457031 200.117188 C 212.484375 200.25 213.574219 200.332031 214.558594 200.636719 C 215.09375 200.792969 215.570312 201 216.039062 201.292969 C 216.121094 201.359375 216.164062 201.535156 216.097656 201.644531 Z M 239.800781 201.109375 C 239.71875 201.019531 239.546875 201.035156 239.453125 201.113281 C 239.144531 201.40625 238.753906 201.609375 238.367188 201.753906 C 237.921875 201.921875 237.449219 202.085938 237.089844 202.289062 C 236.847656 202.445312 236.636719 202.574219 236.476562 202.765625 C 236.035156 203.277344 235.804688 204.066406 235.679688 204.953125 C 235.464844 206.691406 235.703125 208.902344 235.554688 210.101562 C 235.492188 210.527344 235.234375 212.46875 234.746094 213.988281 C 234.523438 214.632812 234.308594 215.222656 233.992188 215.574219 C 233.867188 215.707031 233.742188 215.8125 233.605469 215.746094 C 233.492188 215.707031 233.414062 215.617188 233.304688 215.523438 C 233.175781 215.339844 233.078125 215.074219 233.042969 214.78125 C 232.871094 213.992188 232.859375 213.011719 232.832031 212.605469 C 232.71875 210.261719 232.941406 208.433594 232.761719 206.605469 C 232.652344 205.359375 232.34375 204.097656 231.667969 202.691406 C 231.617188 202.601562 231.507812 202.535156 231.359375 202.613281 C 231.269531 202.664062 231.203125 202.773438 231.28125 202.894531 C 231.929688 204.238281 232.183594 205.441406 232.265625 206.65625 C 232.417969 208.484375 232.167969 210.28125 232.253906 212.621094 C 232.273438 213.140625 232.265625 214.40625 232.574219 215.292969 C 232.734375 215.824219 233.050781 216.222656 233.445312 216.339844 C 233.757812 216.421875 234.019531 216.355469 234.296875 216.144531 C 234.605469 215.878906 234.898438 215.410156 235.113281 214.820312 C 235.753906 213.226562 236.085938 210.6875 236.152344 210.171875 C 236.273438 208.972656 236.03125 206.792969 236.222656 205.019531 C 236.308594 204.25 236.503906 203.542969 236.855469 203.082031 C 237.046875 202.863281 237.320312 202.683594 237.671875 202.566406 C 238.152344 202.339844 238.742188 202.15625 239.191406 201.902344 C 239.40625 201.773438 239.617188 201.617188 239.773438 201.453125 C 239.898438 201.347656 239.910156 201.175781 239.800781 201.109375 Z M 232.636719 198.617188 C 232.65625 198.359375 232.558594 198.121094 232.375 197.90625 C 232.082031 197.566406 231.496094 197.292969 231.007812 197.253906 C 230.582031 197.195312 230.171875 197.277344 229.953125 197.523438 C 229.886719 197.601562 229.878906 197.746094 229.957031 197.839844 C 230.039062 197.902344 230.183594 197.914062 230.273438 197.835938 C 230.339844 197.753906 230.484375 197.734375 230.628906 197.746094 C 230.828125 197.730469 231.082031 197.808594 231.304688 197.910156 C 231.53125 197.984375 231.722656 198.144531 231.882812 198.300781 C 231.960938 198.390625 232.042969 198.484375 232.03125 198.597656 C 232.054688 198.714844 231.957031 198.824219 231.835938 198.929688 C 231.652344 199.089844 231.378906 199.242188 230.996094 199.386719 C 230.816406 199.429688 230.667969 199.507812 230.496094 199.523438 C 230.316406 199.566406 230.171875 199.585938 229.96875 199.597656 C 229.824219 199.617188 229.730469 199.722656 229.746094 199.871094 C 229.765625 200.015625 229.875 200.109375 230.019531 200.089844 C 230.195312 200.074219 230.425781 200.0625 230.597656 200.046875 C 230.773438 200.003906 230.976562 199.988281 231.15625 199.917969 C 231.539062 199.800781 231.839844 199.652344 232.046875 199.550781 C 232.449219 199.179688 232.617188 198.902344 232.636719 198.617188 Z M 227.175781 206.878906 C 227.035156 206.839844 226.914062 206.949219 226.90625 207.0625 L 226.609375 208.710938 C 226.527344 209.050781 226.496094 209.421875 226.382812 209.789062 C 226.3125 209.984375 226.238281 210.210938 226.109375 210.375 C 226.046875 210.457031 226.011719 210.539062 225.921875 210.5625 C 225.894531 210.558594 225.890625 210.589844 225.863281 210.585938 L 225.835938 210.554688 C 225.8125 210.496094 225.785156 210.492188 225.761719 210.40625 C 225.664062 210.167969 225.601562 209.847656 225.546875 209.4375 C 225.328125 207.695312 225.425781 204.875 225.371094 204.441406 C 225.328125 204.265625 225.269531 203.886719 225.117188 203.585938 C 225.019531 203.347656 224.863281 203.136719 224.730469 203.007812 C 224.484375 202.820312 224.195312 202.796875 223.832031 203.027344 C 223.59375 203.183594 223.363281 203.542969 223.21875 203.933594 C 222.964844 204.636719 222.863281 205.609375 222.742188 206.058594 C 222.59375 206.882812 222.445312 207.707031 222.296875 208.535156 C 221.980469 210.46875 221.777344 212.414062 221.460938 214.347656 C 221.40625 214.691406 221.289062 215.863281 220.96875 216.703125 C 220.890625 216.957031 220.757812 217.179688 220.601562 217.339844 C 220.476562 217.472656 220.355469 217.550781 220.15625 217.507812 C 219.847656 217.425781 219.609375 217.148438 219.4375 216.761719 C 219.210938 216.285156 219.085938 215.640625 218.964844 214.941406 C 218.625 212.207031 219.054688 208.347656 218.964844 207.246094 C 218.886719 206.375 218.441406 205.363281 218.21875 204.484375 C 218.179688 204.25 218.136719 204.042969 218.125 203.8125 C 218.136719 203.699219 218.027344 203.605469 217.910156 203.625 C 217.796875 203.617188 217.699219 203.722656 217.722656 203.839844 C 217.734375 204.070312 217.742188 204.332031 217.808594 204.597656 C 218.003906 205.476562 218.449219 206.429688 218.5 207.296875 C 218.589844 208.429688 218.097656 212.3125 218.410156 215.042969 C 218.511719 216 218.710938 216.824219 219.074219 217.367188 C 219.304688 217.730469 219.605469 217.984375 220 218.101562 C 220.535156 218.257812 220.988281 217.945312 221.320312 217.363281 C 221.820312 216.480469 221.996094 214.90625 222.054688 214.480469 C 222.375 212.542969 222.578125 210.601562 222.894531 208.664062 C 223.011719 207.835938 223.160156 207.011719 223.308594 206.21875 C 223.394531 205.820312 223.449219 205.074219 223.640625 204.457031 C 223.726562 204.058594 223.867188 203.722656 224.109375 203.570312 C 224.171875 203.515625 224.199219 203.519531 224.257812 203.523438 C 224.34375 203.527344 224.421875 203.648438 224.472656 203.738281 C 224.625 204.011719 224.710938 204.390625 224.730469 204.535156 C 224.78125 205.03125 224.675781 208.710938 225.078125 210.269531 C 225.144531 210.5625 225.242188 210.769531 225.347656 210.921875 C 225.480469 211.078125 225.621094 211.144531 225.761719 211.15625 C 225.933594 211.167969 226.175781 211.042969 226.429688 210.714844 C 226.589844 210.496094 226.699219 210.214844 226.773438 209.960938 C 226.859375 209.59375 226.917969 209.195312 226.972656 208.824219 L 227.269531 207.175781 C 227.394531 207.042969 227.320312 206.890625 227.175781 206.878906 Z M 218.644531 199.585938 C 218.472656 199.546875 218.277344 199.5 218.109375 199.433594 C 217.824219 199.351562 217.578125 199.21875 217.328125 199.054688 C 217.160156 198.988281 216.976562 198.769531 216.820312 198.558594 C 216.660156 198.34375 216.507812 198.101562 216.375 197.949219 C 216.289062 197.941406 216.207031 197.878906 216.214844 197.792969 C 216.167969 197.644531 216.171875 197.558594 216.207031 197.503906 C 216.238281 197.449219 216.394531 197.316406 216.613281 197.476562 C 216.71875 197.570312 216.984375 197.90625 217.222656 198.183594 C 217.355469 198.339844 217.488281 198.464844 217.597656 198.527344 C 217.847656 198.664062 218.101562 198.738281 218.355469 198.84375 C 218.636719 198.921875 218.886719 199.027344 219.144531 199.078125 C 219.679688 199.203125 220.25 199.304688 220.796875 199.34375 C 220.9375 199.355469 221.046875 199.449219 221.035156 199.59375 C 221.023438 199.734375 220.929688 199.84375 220.789062 199.832031 C 220.039062 199.804688 219.324219 199.753906 218.644531 199.585938 Z M 216.542969 197.613281 C 216.542969 197.613281 216.542969 197.644531 216.539062 197.671875 C 216.539062 197.671875 216.539062 197.671875 216.535156 197.699219 C 216.570312 197.644531 216.570312 197.617188 216.542969 197.613281 Z M 207.511719 197.773438 C 207.511719 197.773438 207.507812 197.804688 207.511719 197.773438 Z M 223.566406 198.109375 C 223.441406 197.46875 223.441406 196.71875 223.558594 195.890625 C 223.660156 194.917969 223.882812 193.871094 224.070312 192.902344 C 224.210938 192.195312 224.378906 191.515625 224.476562 190.945312 L 224.808594 188.839844 C 224.847656 188.699219 224.941406 188.1875 224.992188 187.929688 C 224.992188 187.929688 224.992188 187.929688 225.019531 187.960938 L 225.042969 187.992188 C 225.019531 187.960938 225.019531 187.933594 225.019531 187.933594 L 225.023438 187.902344 C 225.027344 187.847656 225.027344 187.816406 225.0625 187.761719 C 225.121094 187.710938 225.183594 187.683594 225.238281 187.691406 C 225.300781 187.664062 225.410156 187.703125 225.457031 187.851562 C 225.457031 187.878906 225.484375 187.910156 225.445312 188.023438 C 225.429688 188.25 225.328125 188.820312 225.320312 188.933594 L 225.074219 191.046875 C 225.003906 191.621094 224.894531 192.304688 224.722656 193.039062 C 224.539062 193.976562 224.289062 194.996094 224.160156 195.964844 C 224.046875 196.734375 223.992188 197.449219 224.09375 198.035156 C 224.109375 198.179688 224.015625 198.289062 223.894531 198.335938 C 223.691406 198.378906 223.613281 198.257812 223.566406 198.109375 Z M 225.152344 188.085938 C 225.210938 188.089844 225.265625 188.09375 225.328125 188.042969 C 225.296875 188.070312 225.238281 188.09375 225.152344 188.085938 Z M 224.992188 187.929688 C 224.9375 187.898438 224.960938 187.929688 224.988281 187.988281 Z M 224.992188 187.929688 " fill-opacity="1" fill-rule="nonzero"/></g></g></g></g><g clip-path="url(#id53)"><g clip-path="url(#id54)"><g clip-path="url(#id55)"><g clip-path="url(#id56)"><path fill="#ffffff" d="M 220.386719 208.304688 C 220.527344 208.316406 220.621094 208.207031 220.632812 208.0625 C 220.6875 207.347656 220.742188 206.628906 220.738281 205.910156 C 220.722656 205.734375 220.710938 205.503906 220.695312 205.332031 C 220.65625 205.039062 220.59375 204.746094 220.5 204.453125 C 220.457031 204.273438 220.359375 204.039062 220.285156 203.859375 C 220.210938 203.679688 220.113281 203.472656 220.011719 203.289062 C 219.957031 203.230469 219.824219 203.105469 219.714844 202.980469 C 219.71875 202.921875 219.667969 202.832031 219.613281 202.800781 C 219.53125 202.738281 219.445312 202.730469 219.445312 202.730469 C 219.359375 202.722656 219.148438 202.851562 219.277344 203.0625 C 219.332031 203.125 219.515625 203.367188 219.5625 203.488281 C 219.636719 203.667969 219.710938 203.816406 219.78125 204.023438 C 219.828125 204.199219 219.898438 204.378906 219.914062 204.582031 C 219.953125 204.84375 220.015625 205.136719 220.027344 205.367188 C 220.042969 205.539062 220.058594 205.714844 220.074219 205.917969 C 220.136719 206.613281 220.140625 207.304688 220.117188 208.023438 C 220.164062 208.171875 220.242188 208.292969 220.386719 208.304688 Z M 219.660156 202.976562 C 219.632812 202.917969 219.605469 202.914062 219.632812 202.917969 C 219.695312 202.863281 219.691406 202.921875 219.660156 202.976562 Z M 219.820312 212.382812 C 219.824219 212.351562 219.824219 212.351562 219.820312 212.382812 C 219.824219 212.351562 219.820312 212.382812 219.820312 212.382812 Z M 220.335938 213.199219 C 220.34375 213.113281 220.320312 213.023438 220.300781 212.90625 C 220.261719 212.644531 220.246094 212.472656 220.226562 212.355469 C 220.203125 212.296875 220.203125 212.296875 220.203125 212.265625 C 220.15625 212.148438 220.070312 212.113281 220.042969 212.109375 C 219.929688 212.074219 219.808594 212.152344 219.800781 212.265625 C 219.796875 212.324219 219.796875 212.324219 219.820312 212.382812 C 219.820312 212.382812 219.820312 212.382812 219.824219 212.351562 C 219.820312 212.410156 219.808594 212.527344 219.769531 212.695312 C 219.761719 212.808594 219.71875 212.949219 219.710938 213.09375 C 219.703125 213.179688 219.695312 213.265625 219.691406 213.351562 C 219.679688 213.496094 219.699219 213.613281 219.71875 213.757812 C 219.75 214.078125 219.734375 214.304688 219.761719 214.335938 C 219.777344 214.484375 219.886719 214.578125 220 214.585938 C 220.148438 214.566406 220.242188 214.460938 220.222656 214.3125 C 220.226562 214.257812 220.285156 213.886719 220.316406 213.484375 C 220.351562 213.402344 220.328125 213.285156 220.335938 213.199219 Z M 219.820312 212.410156 C 219.84375 212.46875 219.871094 212.5 219.925781 212.535156 C 219.898438 212.503906 219.84375 212.46875 219.820312 212.410156 Z M 226.601562 203.8125 C 226.589844 203.925781 226.554688 204.039062 226.578125 204.128906 C 226.59375 204.273438 226.5 204.382812 226.378906 204.429688 C 226.234375 204.476562 226.128906 204.351562 226.078125 204.234375 C 226.027344 204.144531 226.035156 204.058594 225.988281 203.910156 C 225.964844 203.851562 225.96875 203.792969 225.941406 203.734375 C 225.945312 203.675781 225.953125 203.589844 225.960938 203.503906 C 225.964844 203.449219 226 203.363281 225.972656 203.332031 C 225.921875 203.242188 225.960938 203.101562 226.054688 203.023438 C 226.144531 202.972656 226.285156 203.011719 226.363281 203.101562 C 226.441406 203.222656 226.515625 203.375 226.5625 203.550781 C 226.558594 203.578125 226.585938 203.609375 226.585938 203.636719 C 226.609375 203.699219 226.605469 203.753906 226.601562 203.8125 Z M 233.746094 206.535156 C 233.601562 206.523438 233.492188 206.429688 233.503906 206.289062 C 233.480469 205.851562 233.394531 205.472656 233.308594 205.0625 C 233.261719 204.886719 233.191406 204.679688 233.148438 204.472656 C 233.105469 204.296875 233.007812 204.089844 232.933594 203.910156 C 232.90625 203.878906 232.738281 203.433594 232.632812 203.285156 C 232.578125 203.25 232.582031 203.222656 232.527344 203.1875 C 232.476562 203.097656 232.484375 202.957031 232.605469 202.878906 C 232.667969 202.824219 232.78125 202.832031 232.945312 202.960938 C 233.109375 203.117188 233.417969 203.601562 233.441406 203.660156 C 233.542969 203.839844 233.640625 204.078125 233.742188 204.257812 C 233.8125 204.464844 233.882812 204.703125 233.921875 204.9375 C 234.003906 205.375 234.027344 205.835938 233.996094 206.296875 C 233.984375 206.410156 233.890625 206.546875 233.746094 206.535156 Z M 233.894531 211.472656 C 233.898438 211.417969 233.902344 211.359375 233.90625 211.300781 C 233.914062 211.246094 233.886719 211.1875 233.863281 211.125 C 233.839844 211.039062 233.820312 210.949219 233.824219 210.894531 L 233.796875 210.863281 L 233.792969 210.890625 C 233.828125 210.835938 233.832031 210.777344 233.808594 210.71875 C 233.757812 210.601562 233.648438 210.535156 233.53125 210.582031 C 233.472656 210.578125 233.4375 210.632812 233.375 210.742188 C 233.339844 210.800781 233.304688 210.910156 233.289062 211.082031 C 233.285156 211.140625 233.285156 211.167969 233.28125 211.226562 C 233.277344 211.285156 233.273438 211.3125 233.296875 211.371094 C 233.320312 211.433594 233.34375 211.519531 233.339844 211.578125 C 233.390625 211.667969 233.382812 211.753906 233.382812 211.753906 C 233.402344 211.898438 233.511719 211.992188 233.65625 211.976562 C 233.800781 211.957031 233.894531 211.847656 233.878906 211.703125 C 233.875 211.730469 233.882812 211.617188 233.894531 211.472656 Z M 233.765625 210.917969 C 233.761719 210.945312 233.730469 210.972656 233.703125 210.96875 C 233.703125 210.96875 233.734375 210.945312 233.765625 210.917969 Z M 207.824219 201.285156 C 207.734375 201.335938 207.515625 201.578125 207.480469 201.632812 C 207.414062 201.746094 207.375 201.886719 207.335938 202.027344 C 207.265625 202.195312 207.222656 202.421875 207.179688 202.589844 C 207.058594 203.042969 206.96875 203.496094 206.90625 203.953125 C 206.84375 204.410156 206.777344 204.867188 206.746094 205.324219 C 206.652344 206.183594 206.585938 207.042969 206.523438 207.902344 C 206.464844 208.675781 206.460938 209.511719 206.402344 210.285156 C 206.371094 211.464844 206.3125 212.667969 206.28125 213.847656 C 206.269531 213.992188 206.378906 214.085938 206.519531 214.097656 C 206.664062 214.109375 206.757812 214 206.769531 213.855469 C 206.8125 213.3125 206.855469 212.710938 206.898438 212.136719 C 206.972656 210.757812 207.042969 209.410156 207.148438 208.035156 C 207.1875 207.117188 207.253906 206.226562 207.320312 205.3125 C 207.363281 204.765625 207.402344 204.222656 207.5 203.679688 C 207.558594 203.3125 207.613281 202.96875 207.699219 202.601562 C 207.738281 202.429688 207.78125 202.234375 207.824219 202.0625 C 207.863281 201.949219 207.898438 201.839844 207.9375 201.726562 C 207.878906 201.691406 207.972656 201.613281 208.035156 201.558594 C 208.097656 201.507812 208.097656 201.507812 208.125 201.507812 C 208.183594 201.484375 208.1875 201.457031 208.21875 201.402344 C 208.222656 201.371094 208.101562 201.074219 207.824219 201.285156 Z M 207.789062 201.398438 C 207.78125 201.457031 207.804688 201.542969 207.832031 201.574219 C 207.804688 201.542969 207.75 201.511719 207.789062 201.398438 Z M 208 201.644531 C 208.027344 201.644531 208.058594 201.621094 208.089844 201.59375 C 208.140625 201.683594 208.082031 201.679688 208 201.644531 Z M 219.28125 198.019531 C 218.890625 197.847656 218.4375 197.699219 218.050781 197.496094 C 217.941406 197.429688 217.800781 197.390625 217.691406 197.296875 C 217.582031 197.230469 217.46875 197.164062 217.390625 197.101562 C 217.332031 197.070312 217.308594 197.039062 217.253906 196.976562 C 217.226562 196.945312 217.199219 196.914062 217.203125 196.886719 C 217.207031 196.855469 217.175781 196.855469 217.179688 196.828125 C 217.238281 196.800781 217.296875 196.777344 217.296875 196.777344 C 221.03125 196.191406 221.082031 195.878906 219.136719 196.078125 C 220.953125 195.320312 220.761719 195.164062 217.214844 196.367188 L 217.183594 196.367188 C 217.125 196.390625 216.921875 196.402344 216.828125 196.511719 C 216.765625 196.566406 216.734375 196.621094 216.699219 196.675781 C 216.632812 196.816406 216.648438 196.960938 216.726562 197.109375 C 216.769531 197.285156 216.875 197.4375 216.980469 197.53125 C 217.089844 197.65625 217.222656 197.78125 217.386719 197.878906 C 217.527344 197.949219 217.691406 198.046875 217.835938 198.085938 C 218.058594 198.160156 218.285156 198.234375 218.480469 198.308594 C 218.707031 198.382812 218.90625 198.394531 219.132812 198.472656 C 219.269531 198.539062 219.394531 198.433594 219.460938 198.324219 C 219.46875 198.207031 219.390625 198.058594 219.28125 198.019531 Z M 217.113281 196.910156 C 217.089844 196.878906 217.121094 196.851562 217.175781 196.855469 C 217.175781 196.882812 217.140625 196.9375 217.113281 196.910156 Z M 229.515625 196.796875 C 229.539062 196.886719 229.5625 196.972656 229.550781 197.117188 C 229.535156 197.289062 229.46875 197.457031 229.335938 197.648438 C 229.269531 197.757812 229.152344 197.808594 229.011719 197.769531 C 228.902344 197.703125 228.851562 197.582031 228.890625 197.441406 C 228.960938 197.273438 228.941406 197.15625 228.921875 197.042969 C 228.925781 196.984375 228.898438 196.980469 228.902344 196.925781 C 228.878906 196.863281 228.878906 196.835938 228.851562 196.804688 C 228.800781 196.714844 228.753906 196.597656 228.675781 196.476562 C 228.59375 196.410156 228.605469 196.269531 228.671875 196.15625 C 228.734375 196.078125 228.878906 196.085938 228.988281 196.152344 C 229.152344 196.28125 229.289062 196.378906 229.394531 196.5 C 229.441406 196.621094 229.492188 196.738281 229.515625 196.796875 Z M 233.242188 197.824219 C 233.160156 197.761719 233.171875 197.617188 233.265625 197.511719 C 233.363281 197.375 233.507812 197.382812 233.703125 197.457031 C 233.757812 197.488281 233.871094 197.527344 233.953125 197.589844 C 234.007812 197.625 234.0625 197.65625 234.117188 197.71875 C 234.167969 197.777344 234.222656 197.8125 234.277344 197.875 C 234.332031 197.933594 234.382812 198.027344 234.4375 198.058594 C 234.539062 198.238281 234.585938 198.386719 234.609375 198.445312 C 234.660156 198.566406 234.558594 198.730469 234.441406 198.75 C 234.324219 198.800781 234.183594 198.730469 234.136719 198.582031 C 234.167969 198.558594 234.085938 198.523438 234.058594 198.492188 C 234.003906 198.429688 233.898438 198.304688 233.792969 198.183594 C 233.765625 198.152344 233.742188 198.121094 233.714844 198.089844 C 233.660156 198.03125 233.632812 198 233.609375 197.9375 C 233.582031 197.910156 233.558594 197.878906 233.558594 197.878906 L 233.53125 197.847656 C 233.53125 197.847656 233.53125 197.847656 233.558594 197.847656 C 233.585938 197.851562 233.589844 197.824219 233.621094 197.796875 C 233.441406 197.898438 233.296875 197.886719 233.242188 197.824219 Z M 234.105469 198.609375 C 234.105469 198.640625 234.105469 198.609375 234.105469 198.609375 Z M 206.878906 262.15625 C 206.796875 259.789062 206.917969 256.628906 207.101562 253.386719 C 207.152344 252.699219 207.175781 252.007812 207.261719 251.265625 C 207.339844 250.203125 207.445312 249.148438 207.523438 248.117188 C 207.800781 245.167969 208.066406 242.394531 208.199219 240.242188 C 208.207031 240.128906 208.300781 240.046875 208.414062 240.054688 C 208.53125 240.066406 208.609375 240.15625 208.601562 240.273438 C 208.558594 241.59375 208.441406 243.171875 208.316406 244.859375 C 208.207031 246.320312 208.089844 247.871094 208 249.449219 C 207.925781 250.480469 207.847656 251.480469 207.773438 252.511719 C 207.695312 253.546875 207.617188 254.578125 207.570312 255.582031 C 207.417969 258.019531 207.304688 260.316406 207.371094 262.136719 C 207.386719 262.28125 207.265625 262.386719 207.148438 262.40625 C 207.003906 262.398438 206.867188 262.300781 206.878906 262.15625 Z M 207.121094 268.140625 C 207.144531 268.257812 207.132812 268.398438 207.125 268.515625 C 207.109375 268.6875 207.097656 268.886719 207.082031 269.058594 C 207.066406 269.289062 207.023438 269.488281 207.015625 269.601562 C 207.03125 269.746094 206.910156 269.851562 206.792969 269.84375 C 206.648438 269.863281 206.542969 269.738281 206.550781 269.625 C 206.53125 269.480469 206.527344 269.191406 206.550781 268.847656 C 206.5625 268.675781 206.546875 268.53125 206.558594 268.355469 C 206.570312 268.214844 206.582031 268.070312 206.558594 267.953125 C 206.570312 267.8125 206.582031 267.667969 206.5625 267.550781 C 206.539062 267.460938 206.546875 267.375 206.523438 267.289062 C 206.527344 267.261719 206.527344 267.230469 206.5 267.230469 C 206.417969 267.164062 206.398438 267.046875 206.464844 266.910156 C 206.53125 266.828125 206.644531 266.808594 206.785156 266.875 C 206.894531 266.941406 206.972656 267.0625 207.046875 267.242188 C 207.09375 267.390625 207.136719 267.566406 207.152344 267.738281 C 207.113281 267.878906 207.132812 267.996094 207.121094 268.140625 Z M 207.121094 268.140625 " fill-opacity="1" fill-rule="evenodd"/></g></g></g></g><g clip-path="url(#id57)"><g clip-path="url(#id58)"><g clip-path="url(#id59)"><g clip-path="url(#id60)"><path fill="#79342b" d="M 255.546875 256.890625 C 255.554688 256.804688 255.554688 256.777344 255.558594 256.746094 C 255.5625 256.691406 255.59375 256.664062 255.59375 256.664062 C 255.660156 256.554688 255.6875 256.527344 255.746094 256.53125 C 255.804688 256.507812 255.863281 256.511719 255.941406 256.601562 C 255.941406 256.632812 255.96875 256.664062 255.992188 256.722656 C 255.988281 256.75 255.984375 256.808594 255.984375 256.835938 C 255.984375 256.835938 255.984375 256.835938 255.980469 256.867188 C 256.152344 256.878906 256.09375 256.902344 255.976562 256.921875 L 255.980469 256.894531 C 255.976562 256.921875 255.949219 256.921875 255.945312 256.949219 L 256.003906 256.953125 C 255.988281 257.152344 256.015625 257.558594 255.972656 258.132812 C 255.933594 259.050781 255.894531 260.316406 255.875 261.726562 C 255.875 262.503906 255.84375 263.308594 255.785156 264.113281 C 255.78125 264.949219 255.71875 265.75 255.695312 266.496094 C 255.597656 268.191406 255.523438 269.539062 255.484375 270.082031 C 255.472656 270.226562 255.375 270.363281 255.230469 270.351562 C 255.117188 270.34375 254.984375 270.21875 254.996094 270.046875 C 255.007812 269.5 255.054688 268.121094 255.089844 266.453125 C 255.089844 265.703125 255.121094 264.898438 255.183594 264.066406 C 255.214844 263.261719 255.246094 262.457031 255.273438 261.683594 C 255.324219 260.273438 255.417969 258.984375 255.484375 258.097656 C 255.5 257.519531 255.53125 257.089844 255.546875 256.890625 Z M 268.632812 274.984375 C 268.625 273.542969 268.585938 272.128906 268.636719 270.691406 C 268.652344 269.742188 268.722656 268.796875 268.820312 267.851562 C 268.859375 267.738281 268.867188 267.25 268.929688 266.792969 C 268.949219 266.535156 268.96875 266.277344 269.039062 266.109375 C 269.066406 266.085938 269.074219 266.027344 269.074219 266 L 269.046875 265.996094 C 269.046875 265.996094 269.046875 265.996094 269.074219 266 C 269.078125 265.96875 269.105469 265.972656 269.105469 265.972656 C 269.167969 265.890625 269.234375 265.78125 269.1875 265.660156 C 269.140625 265.511719 269.03125 265.449219 268.910156 265.496094 C 268.851562 265.519531 268.816406 265.574219 268.757812 265.628906 C 268.691406 265.710938 268.625 265.847656 268.582031 266.019531 C 268.425781 266.582031 268.382812 267.558594 268.367188 267.730469 C 268.238281 268.703125 268.195312 269.648438 268.152344 270.625 C 268.101562 272.0625 268.109375 273.503906 268.117188 274.945312 C 268.109375 275.808594 268.125 276.761719 268.027344 277.675781 C 267.984375 278.25 267.855469 278.816406 267.671875 279.351562 C 267.601562 279.546875 267.53125 279.683594 267.46875 279.765625 C 267.40625 279.820312 267.40625 279.847656 267.375 279.847656 C 267.320312 279.84375 267.292969 279.8125 267.238281 279.777344 C 266.859375 279.433594 266.578125 278.578125 266.527344 278.082031 C 266.429688 277.097656 266.417969 276.117188 266.433594 275.109375 C 266.523438 272.753906 266.816406 270.355469 266.847656 268.050781 C 266.839844 267.359375 266.914062 266.382812 266.835938 265.484375 C 266.769531 264.816406 266.613281 264.199219 266.328125 263.777344 C 266.277344 263.714844 266.222656 263.683594 266.136719 263.675781 C 266.109375 263.617188 266.058594 263.554688 266.03125 263.523438 C 265.980469 263.433594 265.921875 263.429688 265.871094 263.367188 C 266.148438 262.726562 266.402344 262.050781 266.652344 261.378906 C 266.6875 261.324219 266.875 260.734375 266.976562 260.539062 C 267.035156 260.515625 267.066406 260.460938 267.074219 260.375 C 267.085938 260.230469 267.007812 260.109375 266.894531 260.074219 C 266.835938 260.066406 266.71875 260.089844 266.621094 260.253906 C 266.488281 260.472656 266.269531 261.121094 266.234375 261.175781 C 265.984375 261.847656 265.703125 262.519531 265.421875 263.21875 C 265.214844 263.664062 265.039062 264.082031 264.832031 264.558594 C 263.96875 266.453125 263.101562 269.558594 261.847656 271.277344 C 261.238281 272.125 260.539062 272.59375 259.664062 272.382812 C 259.042969 272.222656 258.601562 272.707031 258.296875 273.691406 C 257.554688 276.316406 257.816406 282.847656 257.363281 286.589844 C 257.242188 287.445312 257.101562 288.15625 256.867188 288.597656 C 256.765625 288.792969 256.667969 288.957031 256.496094 288.945312 C 256.234375 288.953125 256.023438 288.707031 255.851562 288.292969 C 255.53125 287.546875 255.328125 286.4375 255.199219 285.074219 C 254.824219 281.617188 254.898438 276.753906 254.820312 273.578125 C 254.785156 272.078125 254.3125 271.089844 253.648438 270.347656 C 252.980469 269.636719 252.148438 269.199219 251.339844 268.851562 C 250.75 268.605469 250.222656 268.363281 249.839844 268.078125 C 249.515625 267.792969 249.1875 267.539062 248.78125 267.566406 C 248.375 267.621094 247.9375 268.480469 247.9375 268.480469 C 247.289062 269.816406 246.964844 273.019531 246.53125 278.433594 C 246.25 282.15625 245.804688 287.773438 245.082031 288.179688 C 244.757812 288.269531 244.589844 288.171875 244.511719 288.078125 C 243.789062 287.332031 243.960938 284.292969 244.882812 281.59375 C 245.84375 278.726562 245.917969 267.726562 245.800781 267.34375 C 245.71875 266.933594 244.695312 266.367188 244.15625 265.433594 C 243.390625 264.136719 242.730469 262.53125 242.480469 261.675781 C 242.433594 261.5 242.296875 261.433594 242.175781 261.480469 C 242.058594 261.53125 241.957031 261.695312 242.027344 261.960938 C 242.277344 262.84375 242.988281 264.511719 243.75 265.863281 C 244.160156 266.585938 244.574219 267.191406 245.003906 267.601562 C 245.027344 268.464844 245.097656 278.296875 244.066406 281.332031 C 243.328125 283.496094 242.660156 287.394531 243.890625 288.695312 C 244.078125 288.882812 244.351562 289.074219 244.753906 289.105469 C 244.925781 289.117188 245.128906 289.105469 245.335938 289.035156 C 246.484375 288.6875 246.859375 285.574219 247.386719 278.527344 C 247.667969 274.773438 248.625 268.503906 248.976562 268.472656 C 249.324219 268.441406 249.335938 268.644531 249.5 268.769531 C 249.90625 269.117188 250.492188 269.363281 251.105469 269.640625 C 251.832031 269.953125 252.609375 270.359375 253.222656 271.039062 C 253.75 271.652344 254.175781 272.519531 254.199219 273.789062 C 254.261719 277.542969 254.160156 283.554688 254.792969 287.03125 C 254.976562 288.054688 255.207031 288.820312 255.546875 289.308594 C 255.832031 289.730469 256.164062 289.902344 256.539062 289.898438 C 256.828125 289.890625 257.101562 289.710938 257.296875 289.410156 C 257.488281 289.164062 257.628906 288.800781 257.75 288.320312 C 258.042969 287.101562 258.1875 285.210938 258.257812 283.113281 C 258.339844 280.4375 258.363281 277.445312 258.628906 275.417969 C 258.714844 274.675781 258.84375 274.078125 259.019531 273.660156 C 259.15625 273.355469 259.320312 273.136719 259.546875 273.179688 C 260.652344 273.4375 261.527344 272.867188 262.269531 271.828125 C 263.554688 270.050781 264.394531 266.917969 265.292969 264.9375 C 265.398438 264.6875 265.503906 264.40625 265.609375 264.15625 C 265.636719 264.183594 265.664062 264.1875 265.691406 264.21875 C 265.71875 264.21875 265.71875 264.21875 265.75 264.222656 C 265.777344 264.226562 265.78125 264.195312 265.808594 264.199219 C 265.835938 264.199219 265.808594 264.167969 265.839844 264.171875 C 265.871094 264.144531 265.84375 264.113281 265.871094 264.117188 C 265.871094 264.117188 265.902344 264.117188 265.929688 264.121094 C 265.925781 264.179688 265.949219 264.238281 265.976562 264.269531 C 266.207031 264.632812 266.316406 265.128906 266.363281 265.652344 C 266.441406 266.523438 266.371094 267.46875 266.351562 268.128906 C 266.292969 270.429688 265.941406 272.824219 265.882812 275.183594 C 265.859375 276.21875 265.871094 277.257812 265.96875 278.273438 C 266.035156 278.882812 266.472656 280.007812 266.929688 280.445312 C 267.171875 280.667969 267.425781 280.714844 267.726562 280.59375 C 267.933594 280.492188 268.15625 280.222656 268.367188 279.691406 C 268.558594 279.097656 268.691406 278.445312 268.769531 277.789062 C 268.667969 276.859375 268.652344 275.878906 268.632812 274.984375 Z M 268.632812 274.984375 " fill-opacity="1" fill-rule="nonzero"/></g></g></g></g><g clip-path="url(#id61)"><path fill="#ffffff" d="M 213.703125 202.917969 C 212.90625 205.027344 211.125 207.828125 208.570312 207.011719 C 208.148438 206.878906 207.765625 206.660156 207.402344 206.414062 C 207.390625 206.402344 207.386719 206.402344 207.378906 206.394531 C 207.375 206.390625 207.375 206.390625 207.371094 206.386719 C 207.304688 206.332031 207.238281 206.277344 207.175781 206.222656 C 207.027344 206.085938 206.890625 205.9375 206.75 205.792969 C 206.710938 205.75 206.671875 205.699219 206.632812 205.65625 C 206.617188 205.640625 206.613281 205.632812 206.601562 205.621094 C 206.601562 205.617188 206.597656 205.613281 206.597656 205.609375 C 206.488281 205.464844 206.382812 205.3125 206.289062 205.15625 C 206.191406 205 206.097656 204.832031 206.015625 204.667969 C 205.984375 204.609375 205.84375 204.296875 205.828125 204.277344 C 205.210938 202.707031 205.121094 201.125 205.410156 199.625 C 206.28125 195.050781 210.140625 191.773438 214.378906 189.964844 C 214.515625 190.714844 214.636719 191.464844 214.734375 192.207031 C 215.199219 195.753906 214.980469 199.546875 213.703125 202.917969 Z M 206.488281 161.546875 C 206.515625 161.453125 206.570312 161.28125 206.5625 161.226562 C 206.574219 161.355469 206.542969 161.453125 206.488281 161.546875 Z M 204.808594 161.75 C 204.8125 161.753906 204.8125 161.757812 204.8125 161.757812 C 204.78125 161.734375 204.769531 161.722656 204.808594 161.75 Z M 204.84375 161.785156 C 204.835938 161.773438 204.824219 161.765625 204.816406 161.761719 C 204.8125 161.757812 204.8125 161.757812 204.808594 161.75 C 204.8125 161.753906 204.816406 161.753906 204.824219 161.757812 C 204.828125 161.761719 204.835938 161.773438 204.84375 161.785156 Z M 240.957031 173.382812 C 241.007812 172.871094 240.96875 173.269531 240.925781 173.476562 C 240.851562 173.808594 240.746094 174.132812 240.632812 174.453125 C 240.597656 174.542969 240.5625 174.628906 240.527344 174.714844 C 240.507812 174.765625 240.46875 174.847656 240.445312 174.90625 C 240.3125 175.1875 240.167969 175.46875 240.011719 175.742188 C 239.867188 176.003906 239.707031 176.261719 239.539062 176.511719 C 239.3125 176.851562 239.046875 177.203125 238.925781 177.347656 C 235.613281 181.339844 230.574219 183.449219 225.65625 184.722656 C 222.480469 185.542969 219.226562 185.921875 216.101562 186.882812 C 215.382812 183.824219 214.429688 180.808594 213.488281 177.855469 C 211.917969 172.929688 210.191406 168.023438 208.132812 163.273438 C 207.695312 162.261719 207.265625 160.914062 206.449219 160.117188 C 205.746094 159.425781 204.644531 159.675781 204.328125 160.613281 C 203.886719 161.929688 203.789062 163.445312 203.605469 164.816406 C 203.375 166.492188 202.707031 168.003906 202.160156 169.644531 C 201.472656 171.722656 200.796875 173.804688 200.152344 175.894531 C 199.011719 179.574219 197.949219 183.285156 197.097656 187.042969 C 195.898438 192.34375 194.859375 198.121094 196.0625 203.519531 C 196.550781 205.699219 197.503906 207.730469 198.9375 209.445312 C 200.996094 211.914062 203.949219 213.164062 206.945312 214.097656 C 209.914062 215.023438 213.03125 215.816406 215.46875 217.851562 C 216.371094 218.605469 217.292969 219.488281 217.878906 220.515625 C 217.96875 220.667969 218.039062 220.832031 218.117188 220.992188 C 218.125 221.007812 218.128906 221.011719 218.132812 221.023438 C 218.140625 221.042969 218.144531 221.054688 218.15625 221.085938 C 218.199219 221.203125 218.242188 221.316406 218.285156 221.429688 C 218.671875 222.539062 218.914062 223.699219 219.121094 224.851562 C 219.425781 226.527344 219.558594 227.632812 219.738281 229.324219 C 220.6875 238.359375 220.769531 247.5 220.808594 256.574219 C 220.847656 266.457031 220.679688 276.339844 220.410156 286.222656 C 220.25 292.128906 220.058594 298.035156 219.804688 303.9375 C 219.800781 303.992188 219.800781 304.042969 219.796875 304.097656 C 212.863281 308.125 204.273438 307.414062 196.96875 304.722656 C 196.695312 304.621094 196.421875 304.515625 196.152344 304.40625 C 196.039062 304.363281 195.929688 304.316406 195.816406 304.273438 C 195.804688 304.269531 195.800781 304.265625 195.792969 304.261719 C 195.699219 301.296875 195.625 298.328125 195.554688 295.363281 C 195.382812 287.898438 195.261719 280.433594 195.210938 272.96875 C 195.152344 264.535156 195.164062 256.097656 195.410156 247.664062 C 195.511719 244.105469 195.65625 240.542969 195.910156 236.992188 C 196.015625 235.554688 196.136719 234.121094 196.296875 232.6875 C 196.332031 232.375 196.371094 232.0625 196.410156 231.746094 C 196.417969 231.699219 196.445312 231.488281 196.449219 231.445312 C 196.46875 231.324219 196.484375 231.203125 196.5 231.082031 C 196.578125 230.554688 196.664062 230.03125 196.761719 229.511719 C 196.914062 228.714844 197.105469 227.941406 197.367188 227.175781 C 197.382812 227.132812 197.394531 227.105469 197.398438 227.082031 C 197.410156 227.066406 197.421875 227.046875 197.441406 227.011719 C 197.476562 226.957031 197.511719 226.894531 197.550781 226.828125 C 197.636719 226.78125 197.726562 226.730469 197.808594 226.691406 C 201.152344 225.023438 205.558594 223.425781 209.390625 224.277344 C 210.480469 224.519531 211.480469 224.980469 212.308594 225.734375 C 213.40625 226.738281 215.046875 225.109375 213.945312 224.101562 C 210.085938 220.578125 204.253906 221.660156 199.800781 223.328125 C 198.609375 223.777344 197.257812 224.234375 196.179688 224.929688 C 195.542969 225.347656 195.238281 226.21875 195.011719 226.90625 C 194.335938 228.96875 194.128906 231.222656 193.90625 233.367188 C 193.566406 236.625 193.386719 239.902344 193.25 243.175781 C 192.890625 251.636719 192.84375 260.109375 192.867188 268.578125 C 192.894531 276.566406 193.003906 284.558594 193.175781 292.550781 C 193.265625 296.640625 193.261719 300.753906 193.488281 304.839844 C 193.492188 304.898438 193.492188 304.953125 193.496094 305.011719 C 193.507812 305.394531 193.699219 305.832031 194.070312 306.011719 C 198.15625 307.96875 202.867188 309.015625 207.371094 309.222656 C 211.328125 309.40625 215.304688 308.789062 218.929688 307.171875 C 219.949219 306.714844 221.980469 306.023438 222.089844 304.746094 C 222.101562 304.601562 222.101562 304.453125 222.109375 304.304688 C 222.367188 298.28125 222.566406 292.25 222.730469 286.222656 C 223.015625 275.714844 223.191406 265.199219 223.113281 254.683594 C 223.050781 245.449219 222.992188 236.085938 221.769531 226.914062 C 221.4375 224.429688 221.15625 221.546875 219.867188 219.328125 C 218.316406 216.648438 215.464844 214.742188 212.664062 213.578125 C 209.6875 212.335938 206.390625 211.847656 203.558594 210.269531 C 198.8125 207.625 197.71875 202.46875 197.894531 197.460938 C 198.144531 190.335938 200.292969 183.265625 202.386719 176.507812 C 203.0625 174.316406 203.769531 172.136719 204.496094 169.960938 C 205.035156 168.339844 205.65625 166.78125 205.886719 165.089844 C 205.929688 164.773438 205.976562 164.453125 206.023438 164.136719 C 207.742188 167.863281 209.078125 171.917969 210.398438 175.855469 C 211.675781 179.671875 213 183.691406 213.90625 187.671875 C 211.515625 188.652344 209.257812 189.957031 207.363281 191.730469 C 204.425781 194.488281 202.523438 198.492188 203.035156 202.570312 C 203.46875 206.054688 206.035156 209.90625 210.046875 209.4375 C 212.917969 209.101562 214.722656 206.492188 215.738281 204.03125 C 217.144531 200.628906 217.480469 196.746094 217.152344 193.109375 C 217.035156 191.785156 216.839844 190.46875 216.589844 189.15625 C 219.835938 188.148438 223.222656 187.761719 226.515625 186.886719 C 229.742188 186.03125 232.941406 184.832031 235.78125 183.0625 C 238.847656 181.148438 241.636719 178.464844 242.886719 175.011719 C 243.078125 174.484375 243.214844 173.945312 243.273438 173.382812 C 243.425781 171.90625 241.105469 171.914062 240.957031 173.382812 Z M 278.988281 203.234375 C 278.886719 211.621094 278.738281 220.007812 278.582031 228.394531 C 278.402344 237.609375 278.207031 246.824219 277.992188 256.039062 C 277.792969 264.816406 277.582031 273.59375 277.363281 282.375 C 277.183594 289.445312 277 296.519531 276.8125 303.589844 C 276.703125 307.691406 276.59375 311.792969 276.480469 315.894531 C 276.46875 316.230469 276.460938 316.5625 276.449219 316.898438 C 271.035156 320.613281 265.621094 324.324219 260.207031 328.039062 C 257.113281 330.160156 254.019531 332.28125 250.925781 334.398438 C 250.570312 334.644531 250.21875 334.898438 249.859375 335.132812 C 249.8125 335.164062 249.765625 335.203125 249.714844 335.238281 C 249.671875 335.203125 249.503906 335.175781 249.402344 335.132812 C 248.761719 334.890625 247.71875 334.992188 247.027344 334.933594 C 246.148438 334.863281 245.269531 334.796875 244.390625 334.730469 C 242.628906 334.601562 240.863281 334.484375 239.097656 334.378906 C 223.589844 333.433594 208.027344 333.164062 192.492188 333.40625 C 185.289062 333.515625 178.085938 333.746094 170.894531 334.207031 C 170.765625 334.21875 170.4375 334.253906 170.390625 334.3125 C 170.332031 334.273438 170.273438 334.226562 170.226562 334.195312 C 169.851562 333.96875 169.484375 333.722656 169.113281 333.484375 C 167.730469 332.597656 166.347656 331.710938 164.960938 330.824219 C 161.078125 328.332031 157.191406 325.84375 153.304688 323.355469 C 150.617188 321.628906 147.972656 319.777344 145.210938 318.160156 C 145.054688 310.21875 144.921875 302.269531 144.804688 294.328125 C 144.535156 276.855469 144.328125 259.382812 144.238281 241.910156 C 144.152344 225.257812 144.078125 208.59375 144.570312 191.949219 C 144.710938 187.167969 144.785156 182.324219 145.414062 177.574219 C 145.5 176.921875 145.605469 176.273438 145.71875 175.621094 C 153.09375 173.902344 160.347656 171.648438 167.332031 168.722656 C 168.867188 168.074219 170.390625 167.390625 171.898438 166.679688 C 169.808594 178.023438 168.824219 189.609375 168.164062 201.0625 C 167.148438 218.644531 167.136719 236.28125 167.613281 253.882812 C 168.015625 268.738281 168.789062 283.585938 169.863281 298.410156 C 170.375 305.472656 170.882812 312.550781 171.648438 319.589844 C 171.660156 319.6875 171.667969 319.789062 171.679688 319.886719 C 171.742188 320.511719 172.15625 321.042969 172.835938 321.042969 C 181.820312 321.050781 190.800781 321.0625 199.785156 321.070312 C 214.003906 321.082031 228.222656 321.097656 242.441406 321.109375 C 245.730469 321.113281 249.019531 321.117188 252.304688 321.121094 C 252.980469 321.121094 253.402344 320.589844 253.464844 319.964844 C 253.730469 317.300781 253.902344 314.625 254.070312 311.957031 C 254.5625 304.15625 254.863281 296.34375 255.046875 288.53125 C 255.351562 275.949219 255.355469 263.367188 255.140625 250.785156 C 254.84375 233.605469 254.136719 216.433594 253.089844 199.285156 C 252.121094 183.367188 250.625 167.472656 246.542969 152.007812 C 243.945312 142.167969 240.363281 132.425781 234.996094 123.730469 C 231.644531 118.296875 227.542969 113.199219 222.488281 109.242188 C 222.027344 108.882812 221.554688 108.53125 221.078125 108.1875 C 225.023438 109.144531 228.902344 110.625 232.558594 112.128906 C 245.625 117.503906 257.21875 126.65625 265.277344 138.265625 C 272.28125 148.363281 276.195312 160.058594 278.214844 172.089844 C 278.910156 176.210938 279.054688 180.1875 279.085938 184.359375 C 279.128906 190.648438 279.066406 196.945312 278.988281 203.234375 Z M 152.394531 155.394531 C 160.957031 136.855469 174.859375 119.527344 193.722656 110.738281 C 198.765625 108.390625 204.132812 106.742188 209.625 105.835938 C 209.734375 105.816406 210.605469 105.714844 210.632812 105.65625 C 210.730469 105.667969 210.824219 105.6875 210.921875 105.714844 C 212.121094 106.550781 213.433594 106.949219 214.871094 107.15625 C 214.96875 107.203125 215.070312 107.246094 215.164062 107.296875 C 215.332031 107.378906 215.496094 107.464844 215.660156 107.550781 C 214.921875 112.074219 213.835938 116.539062 212.328125 120.898438 C 209.167969 130.015625 204.152344 138.4375 197.601562 145.539062 C 191.433594 152.21875 184.054688 157.664062 176.070312 162 C 175.753906 162.167969 175.433594 162.328125 175.117188 162.496094 C 175.257812 161.816406 175.398438 161.140625 175.550781 160.460938 C 176.925781 154.316406 178.648438 148.152344 181.300781 142.417969 C 183.289062 138.113281 185.839844 133.835938 189.609375 130.847656 C 190.273438 130.320312 191.191406 129.71875 192.035156 129.265625 C 193.351562 128.558594 192.179688 126.5625 190.867188 127.269531 C 186.75 129.484375 183.695312 133.257812 181.382812 137.230469 C 178.351562 142.429688 176.34375 148.21875 174.765625 153.996094 C 173.871094 157.257812 173.109375 160.546875 172.441406 163.863281 C 165.722656 167.167969 158.664062 169.757812 151.453125 171.773438 C 149.710938 172.261719 147.953125 172.710938 146.195312 173.136719 C 147.511719 167.011719 149.792969 161.03125 152.394531 155.394531 Z M 210.003906 77.132812 C 210.570312 74.855469 211.316406 72.570312 212.738281 70.65625 C 213.148438 70.101562 213.804688 69.09375 214.441406 69.820312 C 214.960938 70.414062 215.144531 71.433594 215.332031 72.167969 C 216.652344 77.480469 216.734375 83.199219 216.863281 88.648438 C 217 94.132812 216.761719 99.628906 216.03125 105.058594 C 215.933594 105.042969 215.832031 105.027344 215.734375 105.011719 C 214.871094 104.609375 213.992188 104.246094 213.089844 103.941406 C 212.71875 103.816406 212.335938 103.6875 211.953125 103.582031 C 209.398438 101.46875 208.601562 97.3125 208.347656 94.1875 C 207.878906 88.5 208.625 82.65625 210.003906 77.132812 Z M 251.273438 318.539062 C 251.265625 318.628906 251.257812 318.71875 251.25 318.808594 C 242.617188 318.800781 233.988281 318.792969 225.359375 318.785156 C 211.136719 318.769531 196.921875 318.757812 182.703125 318.742188 C 179.761719 318.738281 176.824219 318.738281 173.882812 318.734375 C 173.347656 313.417969 172.917969 308.089844 172.503906 302.761719 C 171.433594 288.835938 170.640625 274.886719 170.152344 260.925781 C 169.542969 243.527344 169.390625 226.09375 170.105469 208.691406 C 170.703125 194.230469 171.769531 179.640625 174.527344 165.394531 C 179.402344 162.9375 184.082031 160.109375 188.453125 156.835938 C 195.125 151.835938 201.027344 145.886719 205.761719 139.019531 C 210.894531 131.574219 214.523438 123.152344 216.652344 114.386719 C 217.105469 112.53125 217.488281 110.660156 217.8125 108.785156 C 226.980469 114.453125 233.34375 124.210938 237.773438 133.902344 C 248.222656 156.769531 249.875 182.46875 251.230469 207.191406 C 252.636719 232.851562 253.300781 258.570312 252.820312 284.269531 C 252.609375 295.695312 252.242188 307.148438 251.273438 318.539062 Z M 281.347656 180.230469 C 281.167969 172.441406 279.429688 164.609375 277.058594 157.214844 C 272.59375 143.285156 264.371094 131.046875 253.027344 121.742188 C 246.921875 116.738281 240.296875 112.808594 232.984375 109.820312 C 229.625 108.449219 226.1875 107.253906 222.683594 106.308594 C 221.226562 105.917969 219.78125 105.652344 218.324219 105.414062 C 219.210938 98.71875 219.367188 91.941406 219.066406 85.179688 C 218.851562 80.375 218.773438 75.109375 217.265625 70.488281 C 216.75 68.917969 215.738281 67.023438 213.792969 67.210938 C 211.648438 67.417969 210.28125 69.988281 209.453125 71.691406 C 207.429688 75.84375 206.722656 80.738281 206.230469 85.285156 C 205.703125 90.140625 205.558594 95.425781 207.140625 100.117188 C 207.546875 101.324219 208.09375 102.527344 208.832031 103.585938 C 208.292969 103.695312 207.753906 103.828125 207.253906 103.925781 C 204.0625 104.542969 200.917969 105.421875 197.863281 106.539062 C 186.179688 110.808594 176.007812 118.414062 167.757812 127.617188 C 160.066406 136.195312 153.851562 146.128906 149.292969 156.691406 C 146.929688 162.160156 144.921875 167.851562 143.75 173.703125 C 138.386719 174.90625 132.953125 175.832031 127.496094 176.496094 C 120.839844 177.300781 114.136719 177.75 107.433594 177.792969 C 103.390625 177.820312 99.3125 177.753906 95.296875 177.28125 C 93.816406 177.105469 93.832031 179.417969 95.296875 179.589844 C 98.949219 180.023438 102.652344 180.105469 106.324219 180.105469 C 112.125 180.109375 117.933594 179.796875 123.707031 179.222656 C 130.292969 178.566406 136.847656 177.5625 143.3125 176.160156 C 143.117188 177.414062 142.960938 178.671875 142.847656 179.933594 C 142.273438 186.554688 142.1875 193.226562 142.066406 199.867188 C 141.898438 209.628906 141.867188 219.398438 141.878906 229.164062 C 141.890625 240.023438 141.964844 250.886719 142.070312 261.746094 C 142.167969 271.644531 142.292969 281.539062 142.441406 291.433594 C 142.546875 298.433594 142.660156 305.433594 142.785156 312.429688 C 142.820312 314.195312 142.851562 315.960938 142.886719 317.722656 C 142.90625 318.820312 142.972656 319.476562 144 320.132812 C 150.902344 324.558594 157.808594 328.984375 164.710938 333.40625 C 165.988281 334.226562 167.265625 335.046875 168.542969 335.863281 C 168.804688 336.03125 169.066406 336.246094 169.351562 336.378906 C 170.246094 336.816406 171.5625 336.476562 172.539062 336.417969 C 180.113281 335.96875 187.707031 335.761719 195.296875 335.679688 C 211.34375 335.503906 227.421875 335.835938 243.429688 336.972656 C 245.179688 337.097656 246.929688 337.234375 248.675781 337.382812 C 249.433594 337.449219 250.171875 337.625 250.847656 337.25 C 251.722656 336.769531 252.539062 336.089844 253.367188 335.527344 C 256.945312 333.070312 260.527344 330.613281 264.109375 328.15625 C 267.746094 325.664062 271.378906 323.171875 275.019531 320.679688 C 276.078125 319.953125 278.605469 318.84375 278.753906 317.40625 C 279.089844 314.167969 278.9375 310.804688 279.023438 307.554688 C 279.222656 300.199219 279.414062 292.84375 279.601562 285.484375 C 279.84375 275.855469 280.078125 266.222656 280.300781 256.589844 C 280.535156 246.34375 280.753906 236.097656 280.945312 225.851562 C 281.117188 216.78125 281.269531 207.714844 281.355469 198.644531 C 281.414062 192.507812 281.488281 186.363281 281.347656 180.230469 " fill-opacity="1" fill-rule="nonzero"/></g></svg>